<svg id="Camada_1" data-name="Camada 1" xmlns="http://www.w3.org/2000/svg" viewBox="0 0 183.27 33.34"><defs><style>.cls-1{fill:#fff;}</style></defs><g id="Logotipo"><path id="Caminho_2" data-name="Caminho 2" class="cls-1" d="M24.1,7.29l1.46-3.5A15.13,15.13,0,0,0,15.71.14h-.07V3.81h.06A11.88,11.88,0,0,1,24.1,7.29Z" transform="translate(0 -0.14)"/><path id="Caminho_3" data-name="Caminho 3" class="cls-1" d="M15.69,29.53h-.06v3.65h.06a15.19,15.19,0,0,0,10-3.7L24.14,26A11.89,11.89,0,0,1,15.69,29.53Z" transform="translate(0 -0.14)"/><path id="Caminho_4" data-name="Caminho 4" class="cls-1" d="M0,16.66C0,25.07,6,32,13.7,33.05V29.36A13,13,0,0,1,13.7,4V.28C6,1.32,0,8.25,0,16.66Z" transform="translate(0 -0.14)"/><rect id="Retângulo_2" data-name="Retângulo 2" class="cls-1" x="36.47" y="29.17" width="7.7" height="3.58"/><rect id="Retângulo_3" data-name="Retângulo 3" class="cls-1" x="31.13" y="7.71" width="3.4" height="25.04"/><path id="Caminho_5" data-name="Caminho 5" class="cls-1" d="M45.86,20.36A12.58,12.58,0,0,0,57.07,33.14V29.55a9.32,9.32,0,0,1,0-18.39V7.57A12.61,12.61,0,0,0,45.86,20.36Z" transform="translate(0 -0.14)"/><path id="Caminho_6" data-name="Caminho 6" class="cls-1" d="M59,7.59v3.59a9.32,9.32,0,0,1,0,18.39v3.58A12.56,12.56,0,0,0,70.23,20.38,12.59,12.59,0,0,0,59,7.59Z" transform="translate(0 -0.14)"/><path id="Caminho_7" data-name="Caminho 7" class="cls-1" d="M116,7.84h-4.54l-9.07,11v-11H99v25h3.4v-11l9.64,11h4.53l-11-12.78Z" transform="translate(0 -0.14)"/><path id="Caminho_8" data-name="Caminho 8" class="cls-1" d="M125.85,1h-3.6v.85l3.62,3.9Z" transform="translate(0 -0.14)"/><path id="Caminho_9" data-name="Caminho 9" class="cls-1" d="M122.25,4.94l0,28.24H126L125.88,8.8Z" transform="translate(0 -0.14)"/><path id="Caminho_10" data-name="Caminho 10" class="cls-1" d="M150.19,25,133.75,7.25v4.93l19.85,21.3V7.84h-3.4Z" transform="translate(0 -0.14)"/><path id="Caminho_11" data-name="Caminho 11" class="cls-1" d="M133.75,32.88h3.4V18.8l-3.4-3.59Z" transform="translate(0 -0.14)"/><rect id="Retângulo_4" data-name="Retângulo 4" class="cls-1" x="160.01" y="7.71" width="3.4" height="25.04"/><rect id="Retângulo_5" data-name="Retângulo 5" class="cls-1" x="173.63" y="13.26" width="3.4" height="19.48"/><rect id="Retângulo_6" data-name="Retângulo 6" class="cls-1" x="167.4" y="7.71" width="15.87" height="3.51"/><rect id="Retângulo_7" data-name="Retângulo 7" class="cls-1" x="57.48" y="12.87" width="0.97" height="6.4"/><rect id="Retângulo_8" data-name="Retângulo 8" class="cls-1" x="59.03" y="20.23" width="4.37" height="1.02"/><path id="Caminho_12" data-name="Caminho 12" class="cls-1" d="M74.18,20.36A12.67,12.67,0,0,0,85.34,33.11V29.54a9.32,9.32,0,0,1,0-18.37V7.59A12.71,12.71,0,0,0,74.18,20.36Z" transform="translate(0 -0.14)"/><path id="Caminho_13" data-name="Caminho 13" class="cls-1" d="M87.26,11.16a7.79,7.79,0,0,1,5.31,2.65L94,10.45a10.79,10.79,0,0,0-6.76-2.88Z" transform="translate(0 -0.14)"/><path id="Caminho_14" data-name="Caminho 14" class="cls-1" d="M87.26,29.57v3.59A10.86,10.86,0,0,0,94,30.24l-1.45-3.35A7.71,7.71,0,0,1,87.26,29.57Z" transform="translate(0 -0.14)"/></g></svg>