<svg xmlns="http://www.w3.org/2000/svg" width="327.882" height="210.459" viewBox="0 0 327.882 210.459">
  <g id="OBJECTS" transform="translate(-58.861 -46.718)">
    <g id="Grupo_77" data-name="Grupo 77" transform="translate(59.025 47.467)" opacity="0.5">
      <path id="Caminho_758" data-name="Caminho 758" d="M325.464,187.364c-4.084,3.082-9.344,6.35-9.365,11.913a15.2,15.2,0,0,0,1.347,5.465c4.811,12.372,10.755,24.307,13.759,37.4a71.019,71.019,0,0,1,1.6,10.711H69.018c-6.575-6.558-12.3-15.487-9.974-24.744C62.1,215.9,77.325,211.464,79.816,199.092c2.448-12.186-9.023-22.744-9.333-35.215-.214-8.022,4.458-15.454,10.5-19.673s13.235-5.629,20.312-6.23A99.732,99.732,0,0,1,130,139.69c10.691,2.186,21.381,6.175,32.136,4.7a22.581,22.581,0,0,0,11.92-5.028c4.49-3.913,7.088-10.011,8.916-16.1,5.046-16.755,5.687-35.466,14.037-50.428,10.8-19.356,32.82-27.957,52.908-25.531s38.411,14.208,54.426,28.143c15.64,13.629,30.19,30.46,36.22,51.751S341.874,174.938,325.464,187.364Z" transform="translate(-58.515 -46.903)" fill="#fcfaf1"/>
    </g>
    <path id="Caminho_759" data-name="Caminho 759" d="M321.988,144.674c-7.483,5.978-17.3,10.558-26.438,13.9-2.63-10.164-4.939-20.394-6.66-30.723a60.313,60.313,0,0,0,22.29-9.367c11.172-7.771,26.032-36.5,29.752-43.936l.567-1.169h0s2.886-7.8,3.271-8.973a104.182,104.182,0,0,0,2.138-10.274s2.138-.71,2.47,4.241,1.187,3.476,1.187,3.476,8.777-13.5,11.289-12.929c.941.219,0,3.279-1.518,5.071a35.577,35.577,0,0,0-3.036,4.547S365.851,48.867,368.15,50c0,0,1.144.743-1.593,3.618a68.071,68.071,0,0,0-6.286,7.651s8.67-7.716,9.793-7.1c1.871,1.027-6.906,8.886-8.221,11.607,0,0,6.489-6.263,6.863-4.5s-7.066,8.274-10.434,17.115c-.246.874-.567,1.869-.941,2.973h0S348.436,123.558,321.988,144.674Z" transform="translate(16.419 0.75)" fill="#febf9f"/>
    <path id="Caminho_760" data-name="Caminho 760" d="M346.16,61.36a15.625,15.625,0,0,1,2.865,2.984,14.243,14.243,0,0,1,1.133,1.781,5.837,5.837,0,0,1,.716,2.186l-1.069-.415a4.776,4.776,0,0,1,1.7-.995,4.493,4.493,0,0,1,1.892-.251,4.384,4.384,0,0,1,1.8.514,5.462,5.462,0,0,1,1.432,1.093,8.857,8.857,0,0,0-1.636-.525,4.865,4.865,0,0,0-1.582-.1,4.548,4.548,0,0,0-1.475.393,4.7,4.7,0,0,0-1.251.809l-.9.842-.171-1.268a6.391,6.391,0,0,0-.567-1.705c-.267-.59-.567-1.18-.9-1.76C347.5,63.764,346.812,62.6,346.16,61.36Z" transform="translate(20.374 1.907)"/>
    <path id="Caminho_761" data-name="Caminho 761" d="M260.253,93.693c0,6.711-4.768,12.143-10.691,12.143S239,100.4,239,93.693s4.757-12.143,10.637-12.143S260.253,86.982,260.253,93.693Z" transform="translate(12.974 3.784)"/>
    <path id="Caminho_762" data-name="Caminho 762" d="M242.57,100.818s15.277-12.842,5.559-41.018C241.8,41.471,204.543,93.648,242.57,100.818Z" transform="translate(12.056 1.402)"/>
    <path id="Caminho_763" data-name="Caminho 763" d="M205.919,69.842c1.7-11.017,12.433-29.433,31.494-18.1,5.987,3.563,8.552,10.066,9.76,16.82.855,4.711-.78,51-.78,51-1.614,18.58-28.865,22.952-29.795.361l1.122-15.454C203.93,99.908,204.005,82.181,205.919,69.842Z" transform="translate(10.627 0.683)" fill="#febf9f"/>
    <path id="Caminho_764" data-name="Caminho 764" d="M216.947,100.229s7.8,2.667,22.514-6.689a49.6,49.6,0,0,1-23.241,17.487Z" transform="translate(11.401 4.898)" fill="#b06d6a"/>
    <path id="Caminho_765" data-name="Caminho 765" d="M241.276,82.591a7.945,7.945,0,1,1-7.943-8.121,8.033,8.033,0,0,1,7.943,8.121Z" transform="translate(12.034 3.126)" fill="#fcb091"/>
    <path id="Caminho_766" data-name="Caminho 766" d="M214.065,77.481a8.033,8.033,0,0,0-7.943-8.121h-.428a59.4,59.4,0,0,0-.235,16.2h.663a8.032,8.032,0,0,0,7.943-8.077Z" transform="translate(10.627 2.651)" fill="#fcb091"/>
    <path id="Caminho_767" data-name="Caminho 767" d="M253.376,73.386a6,6,0,0,1-4.277,7.257,5.852,5.852,0,0,1-7.1-4.377,6,6,0,0,1,4.285-7.252A5.862,5.862,0,0,1,253.376,73.386Z" transform="translate(13.17 2.603)" fill="#febf9f"/>
    <path id="Caminho_768" data-name="Caminho 768" d="M244.77,76.11a3.557,3.557,0,0,1,2.192-2.9,2.411,2.411,0,0,1,2.021.142,2.66,2.66,0,0,1,1.219,1.421,8.967,8.967,0,0,0-1.55-.459,2.45,2.45,0,0,0-1.262.131A12.786,12.786,0,0,0,244.77,76.11Z" transform="translate(13.373 2.994)"/>
    <path id="Caminho_769" data-name="Caminho 769" d="M216.06,81.551c.738.328,1.347.71,1.956.962a4.137,4.137,0,0,0,1.7.426,3.918,3.918,0,0,0,1.646-.426,19.73,19.73,0,0,0,1.849-1.093,3.857,3.857,0,0,1-1.069,2.186,3.409,3.409,0,0,1-2.395,1.093,3.509,3.509,0,0,1-2.373-.995,4.507,4.507,0,0,1-1.315-2.153Z" transform="translate(11.39 3.772)"/>
    <path id="Caminho_770" data-name="Caminho 770" d="M218.312,65.52a4.365,4.365,0,0,1-.1,2.186,8.1,8.1,0,0,1-.812,1.967,12.417,12.417,0,0,1-2.63,3.279l-.1-.852a30.178,30.178,0,0,1,3.293,2.634,29.619,29.619,0,0,1-3.934-1.814l-.556-.284.46-.568c.406-.492.8-1.027,1.208-1.541s.791-1.038,1.155-1.574a13.463,13.463,0,0,0,2.01-3.432Z" transform="translate(11.212 2.294)"/>
    <path id="Caminho_771" data-name="Caminho 771" d="M224.081,67.211a17.463,17.463,0,0,0,.107,3.093c.15.984.535,1.869,1.069,1.989a2.434,2.434,0,0,0,1.956-.973,17.567,17.567,0,0,0,1.9-2.4h0a.512.512,0,0,1,.331-.218.5.5,0,0,1,.385.087.52.52,0,0,1,.182.612,10.108,10.108,0,0,1-1.711,2.984,5.185,5.185,0,0,1-1.39,1.2,2.621,2.621,0,0,1-2.138.251,2.734,2.734,0,0,1-1.539-1.541,5.568,5.568,0,0,1-.406-1.836,10.657,10.657,0,0,1,.406-3.41.436.436,0,0,1,.2-.268.419.419,0,0,1,.33-.038.436.436,0,0,1,.31.437Z" transform="translate(11.857 2.406)"/>
    <path id="Caminho_772" data-name="Caminho 772" d="M208.845,65.49a26.815,26.815,0,0,0,0,2.94,6.364,6.364,0,0,0,.246,1.3c.128.393.31.568.406.568a.866.866,0,0,0,.641-.3,7.089,7.089,0,0,0,.887-.973c.556-.754,1.069-1.6,1.6-2.426h0a.512.512,0,0,1,.919.437,11.938,11.938,0,0,1-1.24,2.874,5.908,5.908,0,0,1-1.069,1.322,2.932,2.932,0,0,1-.845.546,1.9,1.9,0,0,1-1.24.087,1.99,1.99,0,0,1-1.016-.732,2.926,2.926,0,0,1-.428-.94,6.062,6.062,0,0,1-.182-1.716,11.968,11.968,0,0,1,.5-3.159.435.435,0,0,1,.214-.259.419.419,0,0,1,.331-.025.426.426,0,0,1,.3.437Z" transform="translate(10.801 2.247)"/>
    <path id="Caminho_773" data-name="Caminho 773" d="M230.725,63.367c-.118.765-1.3,1.213-2.641,1.005s-2.341-1.016-2.224-1.792,1.3-1.213,2.641-1.006S230.842,62.591,230.725,63.367Z" transform="translate(12.066 1.922)"/>
    <path id="Caminho_774" data-name="Caminho 774" d="M213.3,60.635c.267.743-.556,1.7-1.828,2.186s-2.534.23-2.79-.514.556-1.694,1.828-2.186S213.023,59.9,213.3,60.635Z" transform="translate(10.877 1.769)"/>
    <path id="Caminho_775" data-name="Caminho 775" d="M209.71,58.538s11.631,2.568,27.379-6.634c0,0-5.687,31.3,9.622,20.055a5.369,5.369,0,0,1,4.394-.973l.609.2S251.36,52.909,238.564,48.4,216.691,45.98,209.71,58.538Z" transform="translate(10.952 0.5)"/>
    <path id="Caminho_776" data-name="Caminho 776" d="M137.39,142.482,143.216,124l13.47,4.7-.609,15.979Z" transform="translate(5.423 7.183)" fill="#febf9f"/>
    <path id="Caminho_777" data-name="Caminho 777" d="M348.619,76.91s-16.3,33.7-30.276,40.362-50.043-3.41-59.867-2.973h0l-6.35-.142c-2.341,3.836-10.819,6.383-16.955,5.8-8.756-.831-11.76-4.634-12.583-7.716l-10.936-.842h0c-5.292-.47-14.2.579-22.45,9.377-3.143,3.355-17.843,20.766-34.98,43.455l4.276-15.531-23.348-2.918C116.6,181.92,124.8,210,135.834,210c19.029,0,48.813-28.974,65.212-46.592l4.191,45.4,63.074,2.186-5.527-54.352c9.023,1.191,54.864,6.612,70.857-3.508C351.377,141.918,367.328,93.4,367.328,93.4Z" transform="translate(5.044 3.353)" fill="#ff725e"/>
    <path id="Caminho_778" data-name="Caminho 778" d="M147.794,174.654c-.406-.109,1.069-7.279,3.613-15.9s5.281-15.4,5.677-15.3-1.657,7.126-4.212,15.716S148.211,174.8,147.794,174.654Z" transform="translate(6.671 9.537)"/>
    <path id="Caminho_779" data-name="Caminho 779" d="M152.558,110.556c1.069-1.18,4.276-4.8,4.34-6.4,0-2.853-4.725,2.273-6.788,4.634a25.489,25.489,0,0,1,2.448,1.771Z" transform="translate(6.836 5.806)" fill="#f69b77"/>
    <path id="Caminho_780" data-name="Caminho 780" d="M133.784,88.606a2.274,2.274,0,0,1,1.7-1.328,2.237,2.237,0,0,1,2.023.705c5.078,5.552,16.517,19.487,22.247,28.93,8.146,13.4,13.534,22.176,13.534,22.176L197.1,160.128s-10.081,5.64-19.019-2.547c-6.767-6.186-9.91-17.137-9.91-17.137s-20.718-38.056-33.782-49.095a2.318,2.318,0,0,1-.609-2.732Z" transform="translate(5.694 4.313)" fill="#5f462e"/>
    <path id="Caminho_781" data-name="Caminho 781" d="M142.7,134.811c-1.454-6.011-1.561-15.738-1.636-19.367a5.761,5.761,0,0,1,3.293-5.377c5.431-3.2,16.453-5.465,16.859-3.946.342,1.3-9.183,4.448-9.183,4.448s11.856-1.989,9.515.765c-1.24,1.475-7.9,2.044-7.9,2.044s7.238.787,6.682,1.869c-.984,1.924-6.927,1.65-6.927,1.65s2.854,2.459,3.688,8.744c.609,4.514-8.467,13.52-8.467,13.52Z" transform="translate(6.211 6.022)" fill="#febf9f"/>
    <path id="Caminho_782" data-name="Caminho 782" d="M147.28,117.232c-.064-.273,1.219-.82,2.886-.962.823-.077,1.572,0,2.021-.077s.641-.2.791-.153.086.153,0,.339a1.227,1.227,0,0,1-.6.525,6.962,6.962,0,0,1-2.138.415C148.659,117.44,147.355,117.527,147.28,117.232Z" transform="translate(6.64 6.989)"/>
    <path id="Caminho_783" data-name="Caminho 783" d="M301.133,129.6c-.449,0-.727-3.421-2.448-7.159s-4.062-6.2-3.763-6.558c.139-.153.93.262,1.967,1.257a15.947,15.947,0,0,1,4.576,10.11C301.539,128.714,301.336,129.6,301.133,129.6Z" transform="translate(16.834 6.972)"/>
    <path id="Caminho_784" data-name="Caminho 784" d="M308.444,122.363c-.321.317-2.48-1.618-5.474-3.4s-5.687-2.8-5.58-3.279,3.143-.066,6.361,1.88S308.733,122.1,308.444,122.363Z" transform="translate(17.006 6.939)"/>
    <path id="Caminho_785" data-name="Caminho 785" d="M260.96,201.736c.118-.1.919.678,2.448,1.967a36.5,36.5,0,0,0,7.056,4.656,7.978,7.978,0,0,0,5.185,1.093,3.434,3.434,0,0,0,2.138-1.541,2.036,2.036,0,0,0,0-2.328,4.722,4.722,0,0,0-2.63-1.519,24.667,24.667,0,0,0-3.71-.6,41.7,41.7,0,0,0-8.1-.066v-2.186c2.01.12,4.127.153,6.275.087,1.593-.055,3.207-.153,4.715-.306a43.456,43.456,0,0,0,4.479-.623,7.725,7.725,0,0,0,3.56-1.639,3.891,3.891,0,0,0,1.219-3.071,2.172,2.172,0,0,0-1.743-2.087,7.791,7.791,0,0,0-1.743-.262,16.882,16.882,0,0,0-1.817,0A22,22,0,0,0,271.7,194.4a24.917,24.917,0,0,0-8.552,4.754c-1.785,1.519-2.651,2.547-2.79,2.426s.535-1.29,2.213-3.082a23.492,23.492,0,0,1,15.576-7.159,17.016,17.016,0,0,1,1.978,0,9.171,9.171,0,0,1,2.138.273,4.23,4.23,0,0,1,3.282,3.8,5.984,5.984,0,0,1-1.839,4.853,9.533,9.533,0,0,1-4.5,2.186,41.6,41.6,0,0,1-4.736.7c-1.593.164-3.207.273-4.864.328-2.213.066-4.4,0-6.478-.109V201.19a42.284,42.284,0,0,1,8.552.164,27.415,27.415,0,0,1,4.03.732,6.571,6.571,0,0,1,3.667,2.383,4.03,4.03,0,0,1,.684,2.317,4.127,4.127,0,0,1-.706,2.186,5.242,5.242,0,0,1-3.261,2.186,7.024,7.024,0,0,1-3.474-.251,14.716,14.716,0,0,1-2.758-1.235,29.841,29.841,0,0,1-6.917-5.388C261.473,202.786,260.864,201.824,260.96,201.736Z" transform="translate(14.448 13.985)"/>
    <path id="Caminho_786" data-name="Caminho 786" d="M200.779,195.33l-4.789,41h93.874l-26.01-38.788Z" transform="translate(9.47 13.812)" fill="#ae8448"/>
    <path id="Caminho_787" data-name="Caminho 787" d="M200.779,195.33l63.256,2,2.512,4.754-24.984.4,12.4,33.859-57.975-.022Z" transform="translate(9.47 13.812)" fill="#fcfaf1"/>
    <path id="Caminho_788" data-name="Caminho 788" d="M200.779,195.33l63.256,2,2.512,4.754-24.984.4,12.4,33.859-57.975-.022Z" transform="translate(9.47 13.812)"/>
    <rect id="Retângulo_37" data-name="Retângulo 37" width="273.593" height="6.94" transform="translate(65.167 250.237)" fill="#eec84e"/>
    <rect id="Retângulo_38" data-name="Retângulo 38" width="112.112" height="7.279" transform="translate(149.323 243.165)"/>
    <path id="Caminho_789" data-name="Caminho 789" d="M202.19,96.48a5.666,5.666,0,0,1-.492.951l-.684,1.093c-.267.437-.524.962-.845,1.53a32.331,32.331,0,0,0-1.582,26.58,29.053,29.053,0,0,0,4.886,8.175c2.138,2.547,4.715,5.137,6.329,8.59a20.331,20.331,0,0,1,1.967,10.711,12.2,12.2,0,0,1-1.678,5.06,9.989,9.989,0,0,1-3.742,3.432c-1.411.8-2.833,1.344-4.148,1.934a31.523,31.523,0,0,0-9.589,6.612,11.605,11.605,0,0,0-3.207,5.1,5.772,5.772,0,0,0,.545,4.372,4.564,4.564,0,0,0,2.042,1.956,10.33,10.33,0,0,1,.973.361,1.738,1.738,0,0,1-1.069-.066,4.474,4.474,0,0,1-2.437-1.935,6.322,6.322,0,0,1-.877-4.918,12.375,12.375,0,0,1,3.3-5.683,32.112,32.112,0,0,1,6.008-4.984,30.451,30.451,0,0,1,3.806-2.1c1.347-.634,2.726-1.191,4.009-1.934a8.549,8.549,0,0,0,3.207-2.984,10.51,10.51,0,0,0,1.422-4.426,19,19,0,0,0-1.849-9.837c-1.465-3.169-3.913-5.64-6.1-8.284a30.506,30.506,0,0,1-5.057-8.645,32.55,32.55,0,0,1-1.55-16.788,29.526,29.526,0,0,1,3.945-10.623c.363-.568.674-1.093.973-1.486l.823-1.006C201.869,96.71,202.158,96.447,202.19,96.48Z" transform="translate(9.481 5.171)"/>
    <path id="Caminho_790" data-name="Caminho 790" d="M153.717,191.205c.171-.186,1.283,2.415,2.908,6.831l.363.984-1.069-.175a48.915,48.915,0,0,1-11.1-3.487,6.437,6.437,0,0,1-3.3-2.623,3.442,3.442,0,0,1-.4-2.284,2.978,2.978,0,0,1,1.219-1.891,3.4,3.4,0,0,1,1.924-.59h.845l.77.066a10.945,10.945,0,0,1,2.833.667,35.938,35.938,0,0,1,3.72,1.639c.909.459,1.347.765,1.261.831a3.8,3.8,0,0,1-1.475-.262l-3.838-1.148a10.6,10.6,0,0,0-2.587-.426H144.32a2.107,2.107,0,0,0-1.155.393,1.653,1.653,0,0,0-.331,2.186,5.13,5.13,0,0,0,2.6,1.956,65.033,65.033,0,0,0,10.691,3.694l-.673.809C154.251,194.243,153.556,191.38,153.717,191.205Z" transform="translate(6.212 13.675)"/>
    <path id="Caminho_791" data-name="Caminho 791" d="M222.092,191.2c.16.175-.535,3.038-1.764,7.224l-.674-.809a64.61,64.61,0,0,0,10.691-3.694,6.488,6.488,0,0,0,.823-.393,4.451,4.451,0,0,0,.727-.437A3.537,3.537,0,0,0,232.964,192a1.676,1.676,0,0,0-.31-2.241,3.365,3.365,0,0,0-2.555-.317c-.941.142-1.839.339-2.651.536-3.207.8-5.27,1.443-5.345,1.235s1.8-1.2,5.057-2.306a25.208,25.208,0,0,1,2.737-.743,7.565,7.565,0,0,1,1.668-.186,3.39,3.39,0,0,1,1.914.612,2.99,2.99,0,0,1,1.208,1.9,3.486,3.486,0,0,1-.417,2.273,6.436,6.436,0,0,1-3.3,2.612,49.157,49.157,0,0,1-11.086,3.476l-1.069.175.363-.984C220.809,193.62,221.921,191.018,222.092,191.2Z" transform="translate(11.58 13.675)"/>
    <path id="Caminho_792" data-name="Caminho 792" d="M153.613,184.87h74.481v32.187a13.519,13.519,0,0,1-3.845,9.478,12.93,12.93,0,0,1-9.283,3.9H166.645a13.223,13.223,0,0,1-13.075-13.367v-32.2Z" transform="translate(6.54 12.84)" fill="#8ec1c2"/>
    <rect id="Retângulo_39" data-name="Retângulo 39" width="75.401" height="1.596" transform="translate(159.565 197.054)" fill="#d7f5f6"/>
    <rect id="Retângulo_40" data-name="Retângulo 40" width="30.832" height="60.964" transform="translate(94.62 179.338)" fill="#abe2d9"/>
    <rect id="Retângulo_41" data-name="Retângulo 41" width="26.684" height="40.144" transform="translate(96.694 198.628)" fill="#c4f6ec" opacity="0.6"/>
    <line id="Linha_43" data-name="Linha 43" y1="31.029" x2="23.22" transform="translate(98.297 188.026)" fill="none" stroke="#c4f6ec" stroke-linecap="round" stroke-miterlimit="10" stroke-width="1.3" opacity="0.6"/>
    <line id="Linha_44" data-name="Linha 44" y1="27.87" x2="20.312" transform="translate(98.383 184.704)" fill="none" stroke="#c4f6ec" stroke-linecap="round" stroke-miterlimit="10" stroke-width="1.3" opacity="0.6"/>
    <path id="Caminho_793" data-name="Caminho 793" d="M92.04,184.016a85.257,85.257,0,0,1-5.6-15.3c-.909-4.077-5.057-22.187-6.521-19.979s1.593,12.58,3.036,17.3c1.165,3.8,5.089,15.159,5.089,15.159S76.6,158.244,73.075,157.753s2.405,8.306,3.581,10.088c3.934,5.967,6.564,9.836,10.017,14.383,0,0-24.257-24.121-26.791-20.547s9.226,8.591,14.71,12.733c4.2,3.18,13.288,10.929,13.288,10.929s-1.294-2.186-5.987-5.377c-7.066-4.722-19.382-10.47-20.109-8.033-.984,3.279,5.912,4.372,11.76,6.743,13.117,5.148,14.635,9.836,14.635,9.836Z" transform="translate(0.581 10.011)" fill="#185442"/>
    <path id="Caminho_794" data-name="Caminho 794" d="M95.307,181.456s-3.346-4.842-8.884-.831-2.021,11.159-.31,13.115,17.169,18.318,19.243,22.307,9.023,14.645,11.268,13.815.545-3.607-.385-10.558a42.572,42.572,0,0,0-8.168-19.673C103.956,194.462,95.307,181.456,95.307,181.456Z" transform="translate(2.231 12.844)" fill="#f97f23"/>
    <path id="Caminho_795" data-name="Caminho 795" d="M97.171,184.942a6.084,6.084,0,0,0-2.138.995c-.652.4-1.261.863-1.892,1.312a8.807,8.807,0,0,1-3.891,1.836.776.776,0,0,0,0,1.552,9.712,9.712,0,0,0,4.4-1.891c.631-.448,1.24-.918,1.882-1.344a12.225,12.225,0,0,1,1.069-.634,12.744,12.744,0,0,0,1.144-.612.675.675,0,0,0,.257-.826.649.649,0,0,0-.759-.387Z" transform="translate(2.581 13.391)" fill="#d55d1e"/>
    <path id="Caminho_796" data-name="Caminho 796" d="M101.844,191.274a1.9,1.9,0,0,0-1.069.339l-.866.5-1.593.984-3.293,2.1c-.834.525-.075,1.88.759,1.344l3.346-2.186,1.572-1.038c.545-.361,1.368-.787,1.593-1.443a.534.534,0,0,0-.088-.435.51.51,0,0,0-.382-.21Z" transform="translate(3.007 13.978)" fill="#d55d1e"/>
    <path id="Caminho_797" data-name="Caminho 797" d="M107.057,198.875c-1.069.623-2.042,1.377-3.058,2.077l-1.518,1.093a10.223,10.223,0,0,0-1.539,1.159.756.756,0,0,0-.039.957.717.717,0,0,0,.915.2,12.046,12.046,0,0,0,1.454-1.016l1.561-1.093a29.263,29.263,0,0,0,3.015-2.273c.567-.514-.16-1.41-.791-1.093Z" transform="translate(3.427 14.683)" fill="#d55d1e"/>
    <path id="Caminho_798" data-name="Caminho 798" d="M111.984,208.363a4.724,4.724,0,0,0-1.358.743c-.4.24-.78.5-1.165.754l-1.123.743c-.438.306-.93.579-1.336.929a.767.767,0,0,0,0,.995.727.727,0,0,0,.951.186,10.072,10.072,0,0,0,1.229-.82l1.144-.776c.374-.251.748-.5,1.069-.765a5.374,5.374,0,0,0,1.283-1.093.6.6,0,0,0-.053-.678.592.592,0,0,0-.631-.23Z" transform="translate(3.846 15.567)" fill="#d55d1e"/>
    <path id="Caminho_799" data-name="Caminho 799" d="M124.976,228.768s20.569-21.017,6.853-22.766S111.27,217.1,111.27,217.1s14.849-20.438,1.71-22.777S102.13,231.14,102.13,231.14Z" transform="translate(3.512 14.255)" fill="#a0b481"/>
    <path id="Caminho_800" data-name="Caminho 800" d="M105.473,227.361s6.275-37.947-9.14-36.788-10.851,18.11-10.851,18.11-5.142-22.777-14.849-16.941S75.2,215.688,75.2,215.688s-19.361-9.345-16.56-1.169,19.414,16.962,19.414,16.962Z" transform="translate(0.5 13.914)" fill="#0b683e"/>
    <path id="Caminho_801" data-name="Caminho 801" d="M78.383,234.07H122.6a11.634,11.634,0,0,0,11.5-11.76H66.88A11.634,11.634,0,0,0,78.383,234.07Z" transform="translate(1.088 16.866)" fill="#e6ccc5"/>
    <path id="Caminho_802" data-name="Caminho 802" d="M87.61,225.62c0-4.536,3.592-13.52,8.039-13.52s8.039,8.984,8.039,13.52a8.028,8.028,0,0,1-16.036,0Z" transform="translate(2.52 15.917)" fill="#f0e5e0"/>
    <path id="Caminho_803" data-name="Caminho 803" d="M105.46,225.62c0-4.536,3.6-13.52,8.039-13.52s8.039,8.984,8.039,13.52a8.273,8.273,0,0,1-3.83,7.615,7.89,7.89,0,0,1-8.375,0,8.273,8.273,0,0,1-3.83-7.615Z" transform="translate(3.752 15.917)" fill="#f0e5e0"/>
    <path id="Caminho_804" data-name="Caminho 804" d="M123.32,225.62c0-4.536,3.592-13.52,8.039-13.52s8.039,8.984,8.039,13.52a8.028,8.028,0,0,1-16.036,0Z" transform="translate(4.986 15.917)" fill="#f0e5e0"/>
    <path id="Caminho_805" data-name="Caminho 805" d="M142.661,222.05h-55.4a2.552,2.552,0,0,0-2.523,2.579v3.945c0,.918,1.069.6,1.646.6a1.546,1.546,0,0,1,1.5,1.2,4.748,4.748,0,0,0,4.586,3.716H99.29a4.759,4.759,0,0,0,4.6-3.716,1.536,1.536,0,0,1,1.5-1.2h.1a1.547,1.547,0,0,1,1.5,1.2,4.748,4.748,0,0,0,4.586,3.716h6.821a4.737,4.737,0,0,0,4.586-3.716,1.557,1.557,0,0,1,1.507-1.2h.1a1.547,1.547,0,0,1,1.5,1.2,4.748,4.748,0,0,0,4.586,3.716h6.821a4.737,4.737,0,0,0,4.586-3.716,1.557,1.557,0,0,1,1.507-1.2h1.315c.182,0,.321,0,.31-.219v-4.328a2.609,2.609,0,0,0-.743-1.828A2.5,2.5,0,0,0,142.661,222.05Z" transform="translate(2.322 16.842)" fill="#494c8e"/>
    <path id="Caminho_806" data-name="Caminho 806" d="M87.288,227.349c18.441-.459,36.882-.066,55.324-.525a.437.437,0,0,0,0-.874c-18.441.459-36.882.066-55.324.525a.437.437,0,0,0,0,.874Z" transform="translate(2.468 17.204)" fill="#fff"/>
  </g>
</svg>
