<svg xmlns="http://www.w3.org/2000/svg" width="136.259" height="271.64" viewBox="0 0 136.259 271.64">
  <g id="exercicio" transform="translate(0 0)">
    <path id="Caminho_1251" data-name="Caminho 1251" d="M286.577,116.37s8.539,18.007,2.659,19.084c-8.07,1.48-11.336-13.434-11.336-13.434Z" transform="translate(-207.991 -60.363)" fill="#163342"/>
    <path id="Caminho_1252" data-name="Caminho 1252" d="M297.708,98.8s4.594-3.634,6.574-5.615,10.642-15.894,12.393-18.6,3.741-8.039,4.936-10.346S334.586,44.18,334.586,44.18l4.538,1.95S331,66.664,328.915,70.089s-4.139,10.346-5.732,13.373-10.208,15.205-11.7,17.987a50.525,50.525,0,0,0-2.95,8.223S295.662,106.308,297.708,98.8Z" transform="translate(-217.581 -25.02)" fill="#8e4f3a"/>
    <path id="Caminho_1253" data-name="Caminho 1253" d="M264.7,130.878a57.76,57.76,0,0,1,.424,10.647c-.424,4.344,11.888,1.159,11.888,1.159s-.689-9.448.373-12.842S264.7,130.878,264.7,130.878Z" transform="translate(-201.529 -66.332)" fill="#8e4f3a"/>
    <path id="Caminho_1254" data-name="Caminho 1254" d="M214.523,258.27s-1.664,4.083-2.751,6.9-6.3,14.22-7.723,22.32-3.573,22.8-3.884,26.848A44.72,44.72,0,0,1,196.7,327.85c-1.628,3.307-5.262,13.021-5.676,19.217s-3.6,33.585-3.6,33.585,2.792,2.424,7.554-.914c0,0,7.83-25.9,9.774-29.7s4.767-13.674,5.043-17.272,3.532-7.656,6.263-15.991,14.159-32.381,15.272-37.138c0,0,.107-2.113,2.95-1.71l-1.792-20.651Z" transform="translate(-163.694 -129.35)" fill="#ff725e"/>
    <path id="Caminho_1255" data-name="Caminho 1255" d="M277.012,258.134s1.776,4.41,2.858,7.217,6.273,14.225,7.687,22.331,3.527,22.805,3.833,26.848a44.816,44.816,0,0,0,3.445,13.521c1.623,3.313,5.237,13.031,5.615,19.232S304,380.869,304,380.869s-2.8,2.424-7.554-.924c0,0-7.784-25.909-9.723-29.711s-4.737-13.684-5.007-17.283-3.517-7.656-6.237-16.007-14.292-32.5-15.823-37.413a1.8,1.8,0,0,0-2.476-1.434L241.13,256.7Z" transform="translate(-189.989 -129.066)" fill="#ff725e"/>
    <path id="Caminho_1256" data-name="Caminho 1256" d="M181.582,492.9a2.552,2.552,0,0,1-1.878.7c-1.133-.071-4.517-1.281-5.946-.607s-1.868,7.207-4.635,8.953-11.04,7.146-10.351,11.382,12.158,2.47,14.95-1.2,5.472-2.088,7.723-4.665S181.326,495.338,181.582,492.9Z" transform="translate(-149.648 -244.653)" fill="#355d6d"/>
    <path id="Caminho_1257" data-name="Caminho 1257" d="M347.468,493.87a2.654,2.654,0,0,0,1.889.669c1.133-.071,4.522-1.276,5.946-.6s1.858,7.212,4.619,8.958,11.03,7.192,10.331,11.408-12.163,2.445-14.95-1.23-5.467-2.1-7.712-4.681S347.7,496.336,347.468,493.87Z" transform="translate(-241.632 -245.115)" fill="#355d6d"/>
    <path id="Caminho_1258" data-name="Caminho 1258" d="M255.908,99.853s-1.123-1.353-1.531,0,.954,5.4,1.1,5.982c0,0,.684,2.266.954,1.975S255.908,99.853,255.908,99.853Z" transform="translate(-196.438 -51.982)" fill="#8e4f3a"/>
    <path id="Caminho_1259" data-name="Caminho 1259" d="M295.352,100.183s1.123-1.353,1.531,0-.955,5.4-1.108,5.982c0,0-.679,2.266-.949,1.975S295.352,100.183,295.352,100.183Z" transform="translate(-216.251 -52.144)" fill="#8e4f3a"/>
    <path id="Caminho_1260" data-name="Caminho 1260" d="M268.336,75.034s10.315,1.587,8.8,17.834-10.611,14.955-11.229,14.94-9.131.342-9.871-19.483C256.05,88.325,255.708,73.666,268.336,75.034Z" transform="translate(-197.289 -40.081)" fill="#8e4f3a"/>
    <path id="Caminho_1261" data-name="Caminho 1261" d="M257.871,87.039s11.444,3.4,16.925,2.312c0,0,.347,2.042,1.138,2.149s1.189-3.864,1.189-3.864.265-13.21-11.683-13.337-9.524,14.292-9.524,14.292l.163,2.465S257.789,91.75,257.871,87.039Z" transform="translate(-197.129 -39.765)" fill="#163342"/>
    <path id="Caminho_1262" data-name="Caminho 1262" d="M267.45,136.3s3.614,3.42,9.187.281a5.79,5.79,0,0,1-4.757,2.669A5.294,5.294,0,0,1,267.45,136.3Z" transform="translate(-202.875 -70.12)" fill="#633029"/>
    <path id="Caminho_1263" data-name="Caminho 1263" d="M259.716,147.56a29.831,29.831,0,0,0,4.844,1.853c1.434.24,10.9,7.957,11.229,8.754s-2.231,7.324-3.185,10.351-5.068,21.249-4.686,22.525,3.945,14.062,4.114,15.093c-24.781,4.88-37.684.7-37.684.7s4.185-12.372,4.027-14.756-2.465-15.92-4.139-19.743-4.456-13.449-4.456-13.449,10.831-8.437,11.137-9,5.742-1.592,7.227-2.327Z" transform="translate(-184.432 -75.633)" fill="#8e4f3a"/>
    <path id="Caminho_1264" data-name="Caminho 1264" d="M212.688,98.921a81.439,81.439,0,0,1-7.146-5.706c-1.94-1.965-10.642-15.894-12.393-18.6s-3.782-8.054-4.961-10.346S175.213,44.21,175.213,44.21l-4.553,1.934s8.121,20.534,10.208,23.959,4.139,10.346,5.732,13.373,10.208,15.205,11.7,17.987a50.524,50.524,0,0,1,2.95,8.223S214.729,106.43,212.688,98.921Z" transform="translate(-155.488 -25.034)" fill="#8e4f3a"/>
    <path id="Caminho_1265" data-name="Caminho 1265" d="M268.618,150.2s5.227,16.093,7.028,22.969c0,0-2.751,12.306-3.062,14.149,0,0-15.42-2.971-30.86.51,0,0-3.333-14.47-3.655-15.282a79,79,0,0,0,7.62-22.239,7.25,7.25,0,0,1,3.476-1.021s-1.465,16.093,9.121,15.935S265.6,149.16,265.6,149.16a19.294,19.294,0,0,1,3.022,1.036Z" transform="translate(-188.491 -76.416)" fill="#ff725e"/>
    <path id="Caminho_1266" data-name="Caminho 1266" d="M171.75,37.309a7.889,7.889,0,0,1-1.189-2.766c-.056-.883.056-2.149.031-2.95a30.9,30.9,0,0,0-.817-5.012c-.133-.322-1.73-1.955-1.924-2.644s-.429-2.123-1.021-1.924-.735,1.557-.735,1.557a.9.9,0,0,0-.791-.6,1.542,1.542,0,0,0-1.414.664s-.628-.47-1.092-.337a1.945,1.945,0,0,0-1.291.9,1.771,1.771,0,0,0-1.21.194,1.628,1.628,0,0,0-.817,1.347s-1.138.316-1.21.97a5.4,5.4,0,0,0,.316,1.679,18.891,18.891,0,0,0,4.629,6.957A18.622,18.622,0,0,1,167,40.964Z" transform="translate(-149.417 -14.157)" fill="#8e4f3a"/>
    <rect id="Retângulo_55" data-name="Retângulo 55" width="17.038" height="3.129" transform="matrix(0.905, -0.425, 0.425, 0.905, 6.077, 15.687)" fill="#b85858"/>
    <path id="Caminho_1267" data-name="Caminho 1267" d="M166.407,24.751s1.786,3.624,1.215,4.89-1.291,0-1.291,0,.73,1.245-.209,1.945-1.7-.827-1.7-.827a1.164,1.164,0,0,1-.868,1.439c-1.174.347-1.531-1.077-1.531-1.077s-.444,1.8-1.669.924c-2.072-1.475-2.108-4.456-2.108-4.456s.061-.72,1.21-.97a1.6,1.6,0,0,1,2.042-1.531s1.154-1.7,2.384-.567A1.409,1.409,0,0,1,166.407,24.751Z" transform="translate(-149.408 -15.044)" fill="#693a2b"/>
    <path id="Caminho_1268" data-name="Caminho 1268" d="M173.349,7.386l1.133-.561a1.807,1.807,0,0,1,2.414.832l7.518,15.537a1.807,1.807,0,0,1-.837,2.414l-1.128.546a1.812,1.812,0,0,1-2.414-.832L172.517,9.8a1.807,1.807,0,0,1,.832-2.409Z" transform="translate(-156.309 -6.642)" fill="#eb7171"/>
    <rect id="Retângulo_56" data-name="Retângulo 56" width="4.864" height="20.861" rx="2.432" transform="translate(13.481 25.418) rotate(154.12)" fill="#eb7171"/>
    <path id="Caminho_1269" data-name="Caminho 1269" d="M365,37.309a7.889,7.889,0,0,0,1.189-2.766c.056-.883-.051-2.149-.031-2.95a30.349,30.349,0,0,1,.817-5.012c.133-.322,1.73-1.955,1.929-2.644s.424-2.123,1.021-1.924.74,1.557.74,1.557a.888.888,0,0,1,.786-.6,1.542,1.542,0,0,1,1.414.664s.633-.47,1.092-.337a1.945,1.945,0,0,1,1.291.9,1.771,1.771,0,0,1,1.21.194,1.628,1.628,0,0,1,.817,1.347s1.138.316,1.21.97a5.4,5.4,0,0,1-.316,1.679,18.822,18.822,0,0,1-4.629,6.957,18.621,18.621,0,0,0-3.787,5.615Z" transform="translate(-250.634 -14.157)" fill="#8e4f3a"/>
    <rect id="Retângulo_57" data-name="Retângulo 57" width="3.129" height="17.038" transform="matrix(0.425, -0.905, 0.905, 0.425, 113.873, 11.264)" fill="#b85858"/>
    <path id="Caminho_1270" data-name="Caminho 1270" d="M374.207,24.751s-1.786,3.624-1.215,4.89,1.3,0,1.3,0-.735,1.245.2,1.945,1.7-.827,1.7-.827a1.164,1.164,0,0,0,.873,1.439c1.169.347,1.531-1.077,1.531-1.077s.444,1.8,1.669.924c2.072-1.475,2.108-4.456,2.108-4.456s-.061-.72-1.21-.97a1.618,1.618,0,0,0-2.042-1.531s-1.154-1.7-2.384-.567A1.414,1.414,0,0,0,374.207,24.751Z" transform="translate(-254.491 -15.044)" fill="#693a2b"/>
    <path id="Caminho_1271" data-name="Caminho 1271" d="M364.6,7.387l-1.133-.561a1.8,1.8,0,0,0-2.409.832l-7.539,15.537a1.807,1.807,0,0,0,.837,2.414l1.133.546a1.807,1.807,0,0,0,2.409-.832L365.414,9.8a1.8,1.8,0,0,0-.817-2.409Z" transform="translate(-244.923 -6.642)" fill="#eb7171"/>
    <path id="Caminho_1272" data-name="Caminho 1272" d="M395.079,21.641l-1.965-.954a1.337,1.337,0,0,0-1.792.6L383.38,37.622A1.337,1.337,0,0,0,384,39.413l1.965.954a1.337,1.337,0,0,0,1.792-.618L395.7,23.417A1.342,1.342,0,0,0,395.079,21.641Z" transform="translate(-259.566 -13.449)" fill="#eb7171"/>
  </g>
</svg>
