<svg xmlns="http://www.w3.org/2000/svg" width="340.15" height="85.761" viewBox="0 0 340.15 85.761">
  <g id="Flat-Mountains" transform="translate(-143.63 -83.936)">
    <path id="Caminho_563" data-name="Caminho 563" d="M619.329,450,539,535.761H703.694Z" transform="translate(-280.257 -366.064)" fill="#0acccc"/>
    <path id="Caminho_564" data-name="Caminho 564" d="M889.062,450,872.9,535.761H973.427Z" transform="translate(-549.989 -366.064)" fill="#362d7c"/>
    <path id="Caminho_565" data-name="Caminho 565" d="M-60,707.358,28.016,662l80.329,45.358Z" transform="translate(203.63 -537.66)" fill="#78d1ad"/>
    <path id="Caminho_566" data-name="Caminho 566" d="M337,707.358,348.723,662l80.329,45.358Z" transform="translate(-117.076 -537.66)" fill="#67306e"/>
    <path id="Caminho_567" data-name="Caminho 567" d="M938.841,546l67.069,67.466H876Z" transform="translate(-552.494 -443.768)" fill="#b1d39e"/>
    <path id="Caminho_568" data-name="Caminho 568" d="M1169.879,546l67.069,67.466H1162Z" transform="translate(-783.531 -443.768)" fill="#7f3e63"/>
    <path id="Caminho_569" data-name="Caminho 569" d="M419.656,695l47.083,39.069H367Z" transform="translate(-141.311 -564.371)" fill="#dbd3a3"/>
    <path id="Caminho_570" data-name="Caminho 570" d="M587,734.069,597.377,695l47.083,39.069Z" transform="translate(-319.032 -564.371)" fill="#8a515e"/>
    <path id="Caminho_571" data-name="Caminho 571" d="M1214,683.076,1154.613,632,1096,683.076Z" transform="translate(-730.215 -513.378)" fill="#f5d5b9"/>
    <path id="Caminho_572" data-name="Caminho 572" d="M1431.3,683.076,1371.918,632,1365,683.076Z" transform="translate(-947.52 -513.378)" fill="#8d6763"/>
    <path id="Caminho_573" data-name="Caminho 573" d="M818.205,727.594,772.275,687,725,727.594Z" transform="translate(-430.512 -557.896)" fill="#ffdcd4"/>
    <path id="Caminho_574" data-name="Caminho 574" d="M943,727.594h51.311L948.381,687Z" transform="translate(-606.618 -557.896)" fill="#8c7b74"/>
  </g>
</svg>
