<svg xmlns="http://www.w3.org/2000/svg" viewBox="0 0 500 500"><defs><style>.cls-1,.cls-22{fill:#fff;}.cls-2{fill:#8599ff;}.cls-3{fill:#9bb54e;}.cls-4{fill:#bad46c;}.cls-21,.cls-5,.cls-9{fill:none;}.cls-14,.cls-15,.cls-17,.cls-21,.cls-22,.cls-5,.cls-6{stroke:#350d75;}.cls-14,.cls-15,.cls-17,.cls-21,.cls-22,.cls-5,.cls-6,.cls-9{stroke-linecap:round;stroke-linejoin:round;}.cls-14,.cls-15,.cls-17,.cls-22,.cls-5,.cls-6,.cls-9{stroke-width:2px;}.cls-6{fill:#51377a;}.cls-7{fill:#dfd0f2;}.cls-8{fill:#ffc4ca;}.cls-9{stroke:#ff8e98;}.cls-10{fill:#350d75;}.cls-11{fill:#705699;}.cls-12{fill:#fc8cbe;}.cls-13,.cls-17{fill:#fecb42;}.cls-14,.cls-20{fill:#2e418f;}.cls-15{fill:#959cb0;}.cls-16{fill:#feab47;}.cls-18{fill:#6476c4;}.cls-19{fill:#485cb3;}</style></defs><title>Literature2</title><g id="BACKGROUND"><rect class="cls-1" width="500" height="500"/></g><g id="OBJECTS"><circle class="cls-2" cx="250" cy="200.4" r="145.21"/><path class="cls-3" d="M444.54,298.94c-4.77,7.5-2,10.18-7.32,17.6-5.67,7.16-8.72,3.74-15.18,9.74-6.75,5.71-3.61,9.92-10.92,15.4-7.55,5.15-10.71.2-18.75,4-8.24,3.49-5.21,9.21-14,12.29-9,2.69-11.81-3.73-20.95-2.47l101.42-94.27c-2.33,8.88-1.06,14.23-4,23.14C451.49,293.12,449,291.2,444.54,298.94Z"/><path class="cls-4" d="M458.84,261.26,357.42,355.53c1.91-9-4.28-12.35-.94-21.09,3.71-8.53,9.19-5.1,13.27-13.07,4.42-7.73-.28-11.24,5.39-18.4,6-6.87,10-3.45,16.15-9.76,6.47-6,3.29-9.29,10.84-14.44,7.79-4.8,10.25-1.79,18.08-6,8.05-3.84,6.32-6.5,15.26-9.2C444.57,261.28,449.81,262.93,458.84,261.26Z"/><path class="cls-5" d="M357.42,355.53c9.14-1.26,12,5.16,20.95,2.47,8.79-3.08,5.76-8.8,14-12.29,8-3.83,11.2,1.12,18.75-4,7.31-5.48,4.17-9.69,10.92-15.4,6.46-6,9.51-2.58,15.18-9.74,5.36-7.42,2.55-10.1,7.32-17.6,4.42-7.74,6.95-5.82,10.29-14.54,2.95-8.91,1.68-14.26,4-23.14-9,1.67-14.27,0-23.37,2.31-8.94,2.7-7.21,5.36-15.26,9.2-7.83,4.21-10.29,1.2-18.08,6-7.55,5.15-4.37,8.43-10.84,14.44-6.17,6.31-10.14,2.89-16.15,9.76-5.67,7.16-1,10.67-5.39,18.4-4.08,8-9.56,4.54-13.27,13.07C353.14,343.18,359.33,346.49,357.42,355.53Z"/><line class="cls-5" x1="458.84" y1="261.26" x2="357.42" y2="355.53"/><line class="cls-5" x1="371.17" y1="342.74" x2="370.53" y2="319.84"/><line class="cls-5" x1="389.92" y1="325.32" x2="392.88" y2="291.58"/><line class="cls-5" x1="408.12" y1="308.39" x2="414.74" y2="274.92"/><line class="cls-5" x1="432.55" y1="285.69" x2="438.81" y2="262.86"/><line class="cls-5" x1="426.68" y1="291.15" x2="451.78" y2="290.17"/><line class="cls-5" x1="404.62" y1="311.65" x2="437.88" y2="315.59"/><line class="cls-5" x1="383.41" y1="331.36" x2="416.77" y2="334.13"/><line class="cls-5" x1="367.08" y1="346.54" x2="387.25" y2="349.48"/><path class="cls-3" d="M411,240.33c-1.16,9.87,3,11.21,1.16,21.27-2.26,10-7,8-10.58,17.17-4,9,1.16,11.73-3.55,20.79-5.12,8.84-10.69,5.39-16.93,13.14-6.62,7.51-.79,11.8-8.15,19.16-7.73,7.05-13.71,2-22.32,7.65L407.2,195.45c1.95,10.07,5.82,14.84,7.16,25.25C415.22,231.1,411.74,230.39,411,240.33Z"/><path class="cls-4" d="M407.2,195.45,350.66,339.51c-2.44-10-10.28-10.37-11.15-20.79-.39-10.39,6.8-9.58,7.05-19.58.71-9.93-5.73-11.19-3.48-21.15,2.73-9.84,8.38-8.31,11.54-17.65,3.61-9.19-1.18-10.95,3.92-19.8,5.53-8.6,9.46-6.76,15.32-14.8,6.25-7.77,3.21-9.61,10.91-16.65C392.84,202.38,398.91,201.5,407.2,195.45Z"/><path class="cls-5" d="M350.66,339.51c8.61-5.69,14.59-.6,22.32-7.65,7.36-7.36,1.53-11.65,8.15-19.16,6.24-7.75,11.81-4.3,16.93-13.14,4.71-9.06-.48-11.78,3.55-20.79,3.6-9.17,8.32-7.21,10.58-17.17,1.8-10.06-2.32-11.4-1.16-21.27.71-9.94,4.19-9.23,3.33-19.63-1.34-10.41-5.21-15.18-7.16-25.25-8.29,6.05-14.36,6.93-22.43,13.64-7.7,7-4.66,8.88-10.91,16.65-5.86,8-9.79,6.2-15.32,14.8-5.1,8.85-.31,10.61-3.92,19.8-3.16,9.34-8.81,7.81-11.54,17.65-2.25,10,4.19,11.22,3.48,21.15-.25,10-7.44,9.19-7.05,19.58C340.38,329.14,348.22,329.48,350.66,339.51Z"/><line class="cls-5" x1="407.2" y1="195.45" x2="350.66" y2="339.51"/><line class="cls-5" x1="358.33" y1="319.98" x2="346.6" y2="297.21"/><line class="cls-5" x1="368.78" y1="293.34" x2="355.43" y2="257.93"/><line class="cls-5" x1="378.93" y1="267.48" x2="369.39" y2="230.56"/><line class="cls-5" x1="392.55" y1="232.78" x2="387.79" y2="206.76"/><line class="cls-5" x1="389.27" y1="241.13" x2="414.08" y2="227.99"/><line class="cls-5" x1="376.98" y1="272.45" x2="412.39" y2="260.32"/><line class="cls-5" x1="365.15" y1="302.59" x2="400.09" y2="289.22"/><line class="cls-5" x1="356.05" y1="325.77" x2="377.79" y2="318.97"/><path class="cls-3" d="M77.17,302.81c4,6.35,1.64,8.6,6.15,14.88,4.78,6.06,7.36,3.18,12.81,8.26,5.69,4.84,3,8.39,9.2,13,6.38,4.36,9,.18,15.84,3.44,7,3,4.38,7.79,11.8,10.41,7.57,2.29,10-3.13,17.72-2L65.15,270.94c1.95,7.51.87,12,3.35,19.56C71.31,297.87,73.45,296.26,77.17,302.81Z"/><path class="cls-4" d="M65.15,270.94l85.54,79.85c-1.6-7.64,3.64-10.43.83-17.82-3.12-7.22-7.76-4.32-11.19-11.07-3.72-6.54.26-9.5-4.53-15.56-5.06-5.82-8.42-2.94-13.62-8.28-5.46-5.09-2.76-7.85-9.13-12.22-6.58-4.07-8.66-1.53-15.28-5.11-6.79-3.26-5.32-5.51-12.87-7.8C77.21,271,72.78,272.36,65.15,270.94Z"/><path class="cls-5" d="M150.69,350.79c-7.72-1.08-10.15,4.34-17.72,2-7.42-2.62-4.84-7.45-11.8-10.41-6.79-3.26-9.46.92-15.84-3.44-6.17-4.65-3.51-8.2-9.2-13-5.45-5.08-8-2.2-12.81-8.26-4.51-6.28-2.14-8.53-6.15-14.88-3.72-6.55-5.86-4.94-8.67-12.31C66,283,67.1,278.45,65.15,270.94c7.63,1.42,12.06,0,19.75,2,7.55,2.29,6.08,4.54,12.87,7.8,6.62,3.58,8.7,1,15.28,5.11,6.37,4.37,3.67,7.13,9.13,12.22,5.2,5.34,8.56,2.46,13.62,8.28,4.79,6.06.81,9,4.53,15.56,3.43,6.75,8.07,3.85,11.19,11.07C154.33,340.36,149.09,343.15,150.69,350.79Z"/><line class="cls-5" x1="65.15" y1="270.94" x2="150.69" y2="350.79"/><line class="cls-5" x1="139.09" y1="339.96" x2="139.67" y2="320.61"/><line class="cls-5" x1="123.28" y1="325.2" x2="120.84" y2="296.68"/><line class="cls-5" x1="107.92" y1="310.86" x2="102.39" y2="282.56"/><line class="cls-5" x1="87.32" y1="291.63" x2="82.08" y2="272.33"/><line class="cls-5" x1="92.27" y1="296.25" x2="71.06" y2="295.38"/><line class="cls-5" x1="110.88" y1="313.62" x2="82.76" y2="316.89"/><line class="cls-5" x1="128.77" y1="330.32" x2="100.57" y2="332.59"/><line class="cls-5" x1="142.54" y1="343.17" x2="125.49" y2="345.62"/><path class="cls-3" d="M105.59,253.34c1,8.33-2.52,9.46-1,18,1.88,8.42,5.88,6.77,8.91,14.53,3.39,7.62-1,9.91,3,17.58,4.31,7.48,9,4.57,14.29,11.13,5.58,6.36.65,10,6.85,16.21,6.52,6,11.58,1.68,18.85,6.51L108.91,215.41c-1.67,8.51-4.94,12.54-6.09,21.33C102.07,245.53,105,244.94,105.59,253.34Z"/><path class="cls-4" d="M108.91,215.41l47.52,121.86c2.08-8.47,8.71-8.75,9.46-17.55.35-8.79-5.73-8.11-5.92-16.57-.58-8.39,4.86-9.44,3-17.87-2.29-8.31-7.06-7-9.72-14.93-3-7.77,1-9.26-3.28-16.74-4.66-7.28-8-5.73-12.92-12.54-5.26-6.57-2.69-8.12-9.19-14.09C121,221.29,115.91,220.54,108.91,215.41Z"/><path class="cls-5" d="M156.43,337.27c-7.27-4.83-12.33-.54-18.85-6.51-6.2-6.23-1.27-9.85-6.85-16.21-5.26-6.56-10-3.65-14.29-11.13-4-7.67.44-10-3-17.58-3-7.76-7-6.11-8.91-14.53-1.51-8.51,2-9.64,1-18-.58-8.4-3.52-7.81-2.77-16.6,1.15-8.79,4.42-12.82,6.09-21.33,7,5.13,12.13,5.88,18.93,11.57,6.5,6,3.93,7.52,9.19,14.09,4.94,6.81,8.26,5.26,12.92,12.54,4.3,7.48.25,9,3.28,16.74,2.66,7.9,7.43,6.62,9.72,14.93,1.88,8.43-3.56,9.48-3,17.87.19,8.46,6.27,7.78,5.92,16.57C165.14,328.52,158.51,328.8,156.43,337.27Z"/><line class="cls-5" x1="108.91" y1="215.41" x2="156.43" y2="337.27"/><line class="cls-5" x1="149.99" y1="320.74" x2="159.94" y2="301.53"/><line class="cls-5" x1="141.2" y1="298.21" x2="152.55" y2="268.31"/><line class="cls-5" x1="132.67" y1="276.34" x2="140.8" y2="245.15"/><line class="cls-5" x1="121.23" y1="246.99" x2="125.29" y2="225.01"/><line class="cls-5" x1="123.98" y1="254.05" x2="103.04" y2="242.9"/><line class="cls-5" x1="134.31" y1="280.54" x2="104.41" y2="270.23"/><line class="cls-5" x1="144.25" y1="306.03" x2="114.75" y2="294.67"/><line class="cls-5" x1="151.9" y1="325.65" x2="133.54" y2="319.86"/><path class="cls-6" d="M215.54,207.65c8.9,9.67,30.23,24.51,47.48-1.16l-26-88.92S194.3,155,215.54,207.65Z"/><path class="cls-1" d="M272.52,163.27s7.75,23.68,24.63,34.8c0,0-20,50.88-35.5,71.88,0,0-12.38-26.5-11.38-49.38,0,0,7.38-9.56,7.07-13.81s-5.25-16.31-7.69-20.13Z"/><path class="cls-7" d="M279.88,178.88a87.23,87.23,0,0,1-7.36-15.61l-22.87,23.36c2.44,3.82,7.37,15.88,7.69,20.13a6.39,6.39,0,0,1-.33,2.16C269.13,202.42,276.29,188.24,279.88,178.88Z"/><path class="cls-5" d="M272.52,163.27s7.75,23.68,24.63,34.8c0,0-20,50.88-35.5,71.88,0,0-12.38-26.5-11.38-49.38,0,0,7.38-9.56,7.07-13.81s-5.25-16.31-7.69-20.13Z"/><path class="cls-1" d="M223.43,123.45c-7.17,6.87-16.46,19.08-8.48,39.24,6.62,16.74,10.6,24.34,14.14,28.11s11.19,11.24,15.82,11,23.54-10.42,29.64-32.47c4.69-1.33,13.53-10.8,10.88-19.2-1.78-5.62-6.49-2.37-6.49-2.37.26-5.57-1-20.13-18.34-30.44S227.33,119.72,223.43,123.45Z"/><path class="cls-7" d="M251.67,126.57l-4.6-13.19c-11.55-.15-20.79,7.35-23.64,10.07-7.17,6.87-16.46,19.08-8.48,39.24,3.07,7.76,5.57,13.54,7.72,17.9C225,149.46,240.29,130.24,251.67,126.57Z"/><path class="cls-5" d="M223.43,123.45c-7.17,6.87-16.46,19.08-8.48,39.24,6.62,16.74,10.6,24.34,14.14,28.11s11.19,11.24,15.82,11,23.54-10.42,29.64-32.47c4.69-1.33,13.53-10.8,10.88-19.2-1.78-5.62-6.49-2.37-6.49-2.37.26-5.57-1-20.13-18.34-30.44S227.33,119.72,223.43,123.45Z"/><path class="cls-8" d="M231.79,180.11c0,1.36,2.23,2.93,4.2,2s2.48-3.23,1.78-3.56S231.77,179,231.79,180.11Z"/><path class="cls-9" d="M232,171.28c.56,2.65-.21,7-.16,8.17a3.23,3.23,0,0,0,2.75,2.8"/><path class="cls-9" d="M238.84,188.64A13.25,13.25,0,0,0,249,182.87"/><path class="cls-10" d="M236.14,152.36c-.53.36-.62.68-.54.89a2.4,2.4,0,0,0,1.75,1.21c1,.16,1.62-.39,2.54-1s4.4-3,6.31-3.55c1.15-.34,4.05-.17,3.92-.51s-3.17-1.54-4.84-1.15A29.12,29.12,0,0,0,236.14,152.36Z"/><path class="cls-10" d="M213.76,159.06c.16.41.31.79.47,1.18,1.61-.55,5.25-.44,6.2-.45s1.66.1,2.26-.57a2.36,2.36,0,0,0,.5-1.93c-.06-.22-.29-.43-.85-.45a21.71,21.71,0,0,0-8.43,1.55,2.59,2.59,0,0,0-.31.19C213.66,158.74,213.7,158.9,213.76,159.06Z"/><path class="cls-10" d="M248.21,159.35a3,3,0,1,1-3.78-2A3,3,0,0,1,248.21,159.35Z"/><path class="cls-5" d="M241.72,161.06a6.05,6.05,0,0,1,4.22-4.53c2.92-.9,5.73,1.2,5.73,1.2"/><path class="cls-10" d="M224,167.37a3,3,0,1,1-3.79-2A3,3,0,0,1,224,167.37Z"/><path class="cls-5" d="M217.62,168.91c.51-1.78,1.17-3.59,3.87-4.43,2.93-.9,5.74,1.2,5.74,1.2"/><path class="cls-11" d="M275.4,151a4.24,4.24,0,0,0-.55,1c-5.47,1.45-13-3.85-14.24-7.75,2.88,10.91,7.62,20,12.33,15.23a5.69,5.69,0,0,1-3.34,2.77c-5,1.42-14.5-11.58-17.93-35.75-4.1-3.75-17.78-3.5-30.53,21.62-13.24,26.08-9.26,50.44-4.25,60.73-10.37-9-15.62-29-13.87-49.6,2.26-26.59,13.25-46.75,30.15-54.13s28.48-.12,34.55,6.76c13.21.74,18,16.74,22.51,32.87s14.16,28.75,25.42,39.5,13.45,29.92,13.12,31.37-.75,9-20.62-4.24-33.22-42.14-33.22-42.14c12.63-5.77,11.88-17.45,9.76-20.8s-5.75-.75-5.75-.75a7,7,0,0,0-2.31,1.73h0A12.17,12.17,0,0,0,275.4,151Z"/><path class="cls-5" d="M260.61,144.32c2.88,10.91,7.62,20,12.33,15.23"/><path class="cls-10" d="M258.27,125.06l.2,3c0,.45,0,.95.12,1.46s.15,1,.23,1.61.16,1.13.24,1.71.16,1.18.29,1.77c.24,1.18.49,2.36.71,3.47s.52,2.12.74,3c.45,1.75.76,2.91.76,2.91l0,.05a1,1,0,0,1-.72,1.23,1,1,0,0,1-1.22-.72.13.13,0,0,1,0-.06s-.25-1.2-.61-3c-.16-.9-.43-1.94-.56-3.09s-.34-2.35-.51-3.56c-.1-.6-.13-1.22-.19-1.83s-.09-1.19-.14-1.77-.09-1.13-.14-1.66,0-1,0-1.47c0-1.82,0-3,0-3a.41.41,0,0,1,.41-.42A.43.43,0,0,1,258.27,125.06Z"/><path class="cls-5" d="M260.59,144.26s0,0,0,.06c1.2,3.9,8.77,9.2,14.24,7.75"/><path class="cls-10" d="M264.16,133.43s.29,1.28.93,3.16c.32.94.72,2,1.22,3.14a29,29,0,0,0,1.75,3.41c.32.57.7,1.08,1.06,1.61s.78,1,1.15,1.44.82.82,1.2,1.21l1.19.91,1.08.61a3.93,3.93,0,0,0,.87.36l.77.28.16.05a1,1,0,0,1-.67,1.89l-.05,0-.94-.4a5.41,5.41,0,0,1-1-.51c-.37-.24-.8-.5-1.24-.81l-1.3-1.14c-.4-.45-.84-.91-1.25-1.42s-.8-1.06-1.14-1.64a19.42,19.42,0,0,1-1-1.78,29.58,29.58,0,0,1-1.6-3.65c-.43-1.19-.78-2.32-1-3.29-.52-1.94-.74-3.28-.74-3.28a.32.32,0,0,1,.63-.13Z"/><path class="cls-10" d="M270.19,137.21s.22.81.64,2a29.46,29.46,0,0,0,1.84,4.24c.19.37.4.72.62,1.07s.44.66.65,1,.47.58.68.85.46.47.66.68a7.24,7.24,0,0,0,.59.49,2.38,2.38,0,0,0,.48.31l.43.25.14.08a1,1,0,1,1-1,1.73l-.06,0-.57-.38a3.54,3.54,0,0,1-.61-.48,9,9,0,0,1-.7-.69c-.23-.27-.49-.55-.72-.87s-.47-.66-.68-1-.44-.74-.63-1.14-.39-.79-.56-1.19a33.34,33.34,0,0,1-2-6.68.41.41,0,0,1,.33-.49A.43.43,0,0,1,270.19,137.21Z"/><path class="cls-5" d="M216.89,208.92c-10.37-9-15.62-29-13.87-49.6,2.26-26.59,13.25-46.75,30.15-54.13s28.48-.12,34.55,6.76c13.21.74,18,16.74,22.51,32.87s14.16,28.75,25.42,39.5,13.45,29.92,13.12,31.37-.75,9-20.62-4.24-33.22-42.14-33.22-42.14c12.63-5.77,11.88-17.45,9.76-20.8s-5.75-.75-5.75-.75a7,7,0,0,0-2.31,1.73h0A12.17,12.17,0,0,0,275.4,151a4.24,4.24,0,0,0-.55,1c-.11.47-.19,4.55-1.9,7.47a0,0,0,0,0,0,0,5.69,5.69,0,0,1-3.34,2.77c-5,1.42-14.5-11.58-17.93-35.75-4.1-3.75-17.78-3.5-30.53,21.62-13.24,26.08-9.26,50.44-4.25,60.73"/><path class="cls-10" d="M250.71,126.85s0-.07-.05-.21-.1-.3-.19-.54-.22-.54-.39-.87a8.88,8.88,0,0,0-.62-1.08,11.29,11.29,0,0,0-.9-1.19,11,11,0,0,0-1.18-1.18,13.45,13.45,0,0,0-1.44-1.07,18.45,18.45,0,0,0-1.65-.87,14.44,14.44,0,0,0-1.78-.62,15,15,0,0,0-1.8-.41c-.6-.07-1.18-.17-1.73-.22l-1.57,0a9.4,9.4,0,0,0-1.33,0l-1,.07-.89.07h0a.33.33,0,0,1-.07-.65L235,118l1.05-.14a7.94,7.94,0,0,1,1.37-.12l1.63-.06c.58,0,1.19.07,1.83.11a15.45,15.45,0,0,1,2,.31,14.68,14.68,0,0,1,2,.56c.65.24,1.28.54,1.9.84a13.32,13.32,0,0,1,1.69,1.11,12.67,12.67,0,0,1,1.44,1.25,14.07,14.07,0,0,1,1.11,1.31,11.6,11.6,0,0,1,.81,1.21,11,11,0,0,1,.52,1c.13.29.23.52.3.71s.08.24.08.24a1,1,0,0,1-.61,1.28,1,1,0,0,1-1.28-.62s0,0,0,0Z"/><path class="cls-10" d="M251.17,125.63a5.85,5.85,0,0,0,.25-.62c.15-.41.35-1,.55-1.74a20.38,20.38,0,0,0,.52-2.55,19.12,19.12,0,0,0,.18-3,14.67,14.67,0,0,0-.13-1.5,9.41,9.41,0,0,0-.28-1.44,8.36,8.36,0,0,0-.41-1.31,7.26,7.26,0,0,0-.5-1.12l-.5-.92-.49-.64-.42-.57,0,0a.26.26,0,0,1,.05-.36.25.25,0,0,1,.34,0l.5.55.57.64.62.92a8.87,8.87,0,0,1,.64,1.15,9.55,9.55,0,0,1,.57,1.37,11.24,11.24,0,0,1,.43,1.52,13.87,13.87,0,0,1,.28,1.61,18.27,18.27,0,0,1,.09,3.21,21.23,21.23,0,0,1-.31,2.78c-.15.81-.31,1.48-.44,1.95s-.23.76-.22.74a1,1,0,0,1-1.29.58A1,1,0,0,1,251.17,125.63Z"/><path class="cls-12" d="M169.55,219.9l7.29,16.58h0l-1.76,1.68c-.44-1.31-3.12-8.22-3.56-9.54s-2.19-3.81-2-7.06c0-.52,0-1.08,0-1.67Z"/><path class="cls-7" d="M134.85,168.91s13.25,3.6,18.42,14l-.69-.09c-4.9-4.22-11.31-6.6-16-7.88Z"/><path class="cls-7" d="M197.9,169.28a146.54,146.54,0,0,0-44.26,13.54l-.37.05a104.42,104.42,0,0,1,42.17-19.6l2.46,6Z"/><path class="cls-1" d="M201.1,168.91l28.42,60.91a12.49,12.49,0,0,0-3.16,7.42l-28.21-60.47-44.51,6a146.54,146.54,0,0,1,44.26-13.54C199,169.14,200,169,201.1,168.91Z"/><path class="cls-1" d="M136.58,174.9c4.69,1.28,11.1,3.66,16,7.88l-30.37-3.95,8.06-5.26A48.65,48.65,0,0,1,136.58,174.9Z"/><path class="cls-12" d="M153.27,182.87,165,209.48c-1-.1-1.81.5-1.57,1.65a48.65,48.65,0,0,1,.57,10.13c-.25,2.37.06,3.19.69,5.69a81.35,81.35,0,0,1,1.81,10.62,46.51,46.51,0,0,0,1,6.62l-13.91-4.62-34.13-61.11,2.81.37h0l30.37,3.95Z"/><path class="cls-12" d="M178.72,246.61s4.55-7.62,5.72-8.71,5-2.41,7.87-4.14,4-6.4,3.29-7.4-2.54.38-4.5,1.83-6.52,2.82-8.52,3.57-2.62,1.56-4.19,3.19c-.36.37-.91.91-1.55,1.53l-7.29-16.58h0c-.06-3.06-.72-6.77-2.08-8.77a3.61,3.61,0,0,0-2.5-1.65l-11.69-26.61.37-.05,44.51-6,28.21,60.47,1,2.21-25.45,4.4-2.63.45h0l-9,1.55c1-1,2.75-1.67,7-4.58s5.17-7.42,4.38-8-2.13.37-4,1.71a49.36,49.36,0,0,1-7.63,3.62,16.14,16.14,0,0,0-4.67,2.92C184.16,242.53,180.89,245,178.72,246.61Z"/><path class="cls-1" d="M185.26,269.81c2.51,8.7,11.51,13.88,17.39,20.2.81,7.06-3.57,20.18-10.63,24.56-7-10.5-16.25-32.25-20.5-41.92a14.26,14.26,0,0,1-1.83-5.83c-.42-3.42-1.61-19.44-2.11-21.87l-.15-.76a46.51,46.51,0,0,1-1-6.62A81.35,81.35,0,0,0,164.65,227c-.63-2.5-.94-3.32-.69-5.69a48.65,48.65,0,0,0-.57-10.13c-.24-1.15.55-1.75,1.57-1.65a3.61,3.61,0,0,1,2.5,1.65c1.36,2,2,5.71,2.08,8.77,0,.59,0,1.15,0,1.67-.19,3.25,1.56,5.75,2,7.06s3.12,8.23,3.56,9.54l1.76-1.68h0c.64-.62,1.19-1.16,1.55-1.53,1.57-1.63,2.19-2.44,4.19-3.19s6.56-2.11,8.52-3.57,3.75-2.83,4.5-1.83-.41,5.68-3.29,7.4-6.71,3.06-7.87,4.14-5.72,8.71-5.72,8.71c2.17-1.62,5.44-4.08,6.67-5.12a16.14,16.14,0,0,1,4.67-2.92,49.36,49.36,0,0,0,7.63-3.62c1.87-1.34,3.21-2.34,4-1.71s-.13,5.12-4.38,8-6,3.58-7,4.58-6.44,7.66-6.89,8.21c2.57-1.88,6.64-4.89,8-5.92,1.94-1.49,7.55-3.71,7.9-3.84h0l2.63-.45s-4.37,6.72-6.12,7.91a104.61,104.61,0,0,0-7.81,7.73C187.15,263.53,187.43,266.46,185.26,269.81Z"/><path class="cls-13" d="M207.57,295.7c2.88,17.8-4.3,30.31-6,30.25-3.25-.82-9.69-7.88-9.81-8.42a15.57,15.57,0,0,1,.31-3c7.06-4.38,11.44-17.5,10.63-24.56A40.76,40.76,0,0,1,207.57,295.7Z"/><path class="cls-13" d="M207.45,289c5.37-8.46,15.32-24.38,19.94-34.84s12.78-23,12.78-23l9.48,51.32c-3.76,5.71-22.88,29.05-24.32,31.42s-2.37,7.75-3.5,8.94-4.75.75-6.12,1.31-10.25,4.25-10.82,4.26-3.37-2.38-3.37-2.38c1.75.06,8.93-12.45,6-30.25a40.76,40.76,0,0,0-4.92-5.69,7.42,7.42,0,0,1,2.45-1.44A10.74,10.74,0,0,1,207.45,289Z"/><path class="cls-5" d="M176.84,236.48c.64-.62,1.19-1.16,1.55-1.53,1.57-1.63,2.19-2.44,4.19-3.19s6.56-2.11,8.52-3.57,3.75-2.83,4.5-1.83-.41,5.68-3.29,7.4-6.71,3.06-7.87,4.14-5.72,8.71-5.72,8.71"/><path class="cls-5" d="M171.52,241.51s1.76-1.64,3.56-3.34l1.76-1.68"/><path class="cls-5" d="M183.41,254.09l0,0"/><path class="cls-5" d="M176.65,248.15l2.07-1.54c2.17-1.62,5.44-4.08,6.67-5.12a16.14,16.14,0,0,1,4.67-2.92,49.36,49.36,0,0,0,7.63-3.62c1.87-1.34,3.21-2.34,4-1.71s-.13,5.12-4.38,8-6,3.58-7,4.58-6.44,7.66-6.89,8.21"/><path class="cls-5" d="M181.23,255.69l2.18-1.6v0c2.57-1.88,6.64-4.89,8-5.92,1.94-1.49,7.55-3.71,7.9-3.84"/><polyline class="cls-5" points="122.2 178.83 119.39 178.46 153.52 239.57 167.43 244.19"/><polyline class="cls-5" points="190.31 245.86 199.29 244.31 199.31 244.3 201.94 243.85 227.39 239.45 226.36 237.24 198.15 176.77 153.64 182.82 153.27 182.87 152.58 182.78 122.21 178.83"/><polyline class="cls-5" points="169.55 219.9 176.84 236.48 176.84 236.49"/><path class="cls-5" d="M165,209.48l-11.69-26.61a104.42,104.42,0,0,1,42.17-19.6l2.46,6"/><path class="cls-5" d="M201.94,243.85s-4.37,6.72-6.12,7.91a104.61,104.61,0,0,0-7.81,7.73c-1.44,1.51-2.49,2.64-2.49,2.64"/><path class="cls-5" d="M188,259.49c-.86,4-.58,7-2.75,10.32a17.37,17.37,0,0,1-2.74,3.2"/><path class="cls-5" d="M185.26,269.81c2.51,8.7,11.51,13.88,17.39,20.2.81,7.06-3.57,20.18-10.63,24.56-7-10.5-16.25-32.25-20.5-41.92a14.26,14.26,0,0,1-1.83-5.83c-.42-3.42-1.61-19.44-2.11-21.87l-.15-.76a46.51,46.51,0,0,1-1-6.62A81.35,81.35,0,0,0,164.65,227c-.63-2.5-.94-3.32-.69-5.69a48.65,48.65,0,0,0-.57-10.13c-.24-1.15.55-1.75,1.57-1.65a3.61,3.61,0,0,1,2.5,1.65c1.36,2,2,5.71,2.08,8.77,0,.59,0,1.15,0,1.67-.19,3.25,1.56,5.75,2,7.06s3.12,8.23,3.56,9.54"/><path class="cls-5" d="M218.35,320.65a61.71,61.71,0,0,0-10.78-24.95,40.76,40.76,0,0,0-4.92-5.69,7.42,7.42,0,0,1,2.45-1.44,10.74,10.74,0,0,1,2.35.38c3.5.82,10.51,3.17,19.07,8.87"/><path class="cls-5" d="M192,314.57a15.57,15.57,0,0,0-.31,3c.12.54,6.56,7.6,9.81,8.42,1.75.06,8.93-12.45,6-30.25"/><path class="cls-5" d="M201.52,326s2.8,2.38,3.37,2.38,9.44-3.7,10.82-4.26,5-.12,6.12-1.31,2.06-6.57,3.5-8.94,20.56-25.71,24.32-31.42l-9.48-51.32s-8.15,12.57-12.78,23S212.82,280.49,207.45,289"/><path class="cls-5" d="M122.2,178.83h0l8.06-5.26a48.65,48.65,0,0,1,6.31,1.33c4.69,1.28,11.1,3.66,16,7.88l.11.09"/><path class="cls-5" d="M153.62,182.83h0a146.54,146.54,0,0,1,44.26-13.54c1.06-.14,2.12-.26,3.2-.37l28.42,60.91a12.49,12.49,0,0,0-3.16,7.42"/><path class="cls-5" d="M136.58,174.9l-1.73-6s13.25,3.6,18.42,14"/><path class="cls-14" d="M173.42,317.53c22.52,2.87,38.19,8,52.69,12.54s40.66,11.5,40.66,11.5l17,8.12v38.25h-89.5S170.73,351,173.42,317.53Z"/><path class="cls-15" d="M252.61,235.4s12.15,3.5,30.5-2.5l-21.46,49.5S253.06,255.26,252.61,235.4Z"/><path class="cls-13" d="M255.47,212.56s-3.95,25.51,6.18,57.39l21.25,36.12,3,43.5a31.06,31.06,0,0,1-24.26-8.75c2.5-13.75,1.12-31.25,0-34s-12.88-11.75-16.25-19.62-5-34.88-5.63-43.5-.62-11.13,1.88-16.25S255.47,212.56,255.47,212.56Z"/><path class="cls-16" d="M285.91,349.57,283.45,314l-24.29-10.2h0a13.6,13.6,0,0,1,2.49,3.07c1.12,2.75,2.5,20.25,0,34A31.06,31.06,0,0,0,285.91,349.57Z"/><path class="cls-5" d="M255.47,212.56s-3.95,25.51,6.18,57.39l21.25,36.12,3,43.5a31.06,31.06,0,0,1-24.26-8.75c2.5-13.75,1.12-31.25,0-34s-12.88-11.75-16.25-19.62-5-34.88-5.63-43.5-.62-11.13,1.88-16.25S255.47,212.56,255.47,212.56Z"/><path class="cls-13" d="M291.79,193.88S277.19,236,261.65,270c0,0,5.46,22.62,17.12,36.29,6.67,14,2.17,41,2,42.5s22,7,43.17,5,31.33-1.67,37.5,1.33,19.17,11,19.17,11a187,187,0,0,0-24.5-47.67c-2-33.5-1.4-57.12-5.67-83.5-1-5.9-11.94-15.38-21.33-20.66C312,204.62,291.79,193.88,291.79,193.88Z"/><path class="cls-16" d="M291.79,193.88s-5.83,16.81-14,37.74l13.15,12.83,5.35-48.19Z"/><path class="cls-16" d="M299.57,353.27c2.86.34,5.92.61,9.09.76,13.38-3.12,38.8-7.9,64.45-6.46a189.5,189.5,0,0,0-17-29.17c-1.33-22.17-1.51-40-2.72-57.21l-36.75-7.72Z"/><path class="cls-5" d="M291.79,193.88S277.19,236,261.65,270c0,0,5.46,22.62,17.12,36.29,6.67,14,2.17,41,2,42.5s22,7,43.17,5,31.33-1.67,37.5,1.33,19.17,11,19.17,11a187,187,0,0,0-24.5-47.67c-2-33.5-1.4-57.12-5.67-83.5-1-5.9-11.94-15.38-21.33-20.66C312,204.62,291.79,193.88,291.79,193.88Z"/><polygon class="cls-17" points="279.88 226.17 297.15 236.49 299.02 197.75 287.54 189.54 279.88 226.17"/><polygon class="cls-17" points="257.3 207.65 254.81 230.82 246.27 237.24 252.16 215.55 257.3 207.65"/><path class="cls-7" d="M249.48,328.33h0a26.72,26.72,0,0,0-1.22,5.41c-.53,2.62-1.75,7.58-2.33,10.33s.33,5.67.91,7.67a31.72,31.72,0,0,1,.75,6.5l0,.68c0,.34-1.75,1.59-2.42,1.34s-.25-1.63-.5-3.31a60.08,60.08,0,0,0-1.88-8.19,11.3,11.3,0,0,1,.36-7.69C244.19,338.49,249.48,328.33,249.48,328.33Z"/><path class="cls-13" d="M330.78,296.48a25.67,25.67,0,0,0-1.13-2.41c-.57-1,.74-3.62.62-4.62s-4.88-9.88-10.88-23.63S318.27,238,323,223.32c5.75-.63,20.08,1.17,26.06,8.21s9.69,29.37,12.19,38.42,14.33,44.29,14.92,49-7.34,9.08-8.8,10.66-2.79,4.92-4.55,5.67-7.49-1-9.07-1-9.21,1-10.92,1-3.69-2-3.69-2,1.49-14.47-5.87-26.44a83.8,83.8,0,0,0-8-5.19s2.88-5.87,4-5.74A9,9,0,0,1,330.78,296.48Z"/><path class="cls-16" d="M376.19,319a37.4,37.4,0,0,0-1.05-4.34C352.38,298.82,333,297,333,297c20.25,11.37,29.88,25.39,34,33.26.15-.2.3-.39.45-.56C368.85,328.07,376.77,323.74,376.19,319Z"/><path class="cls-16" d="M333.4,307.06c7.24,11.93,5.76,26.26,5.76,26.26s2,2,3.69,2,9.34-1,10.92-1c1.06,0,4,.78,6.29,1.07C352,322.11,339.7,311.81,333.4,307.06Z"/><path class="cls-13" d="M333.29,306.88c7.36,12,5.87,26.44,5.87,26.44s-7.22.08-8.64,0a4.55,4.55,0,0,1-2.67-1.67,8.27,8.27,0,0,0,0-1.75,40.07,40.07,0,0,0-2.11-9.83,70.33,70.33,0,0,0-7.92-16,2.89,2.89,0,0,1,1.25-1.1c.71-.23,6.23-1.32,6.23-1.32A83.8,83.8,0,0,1,333.29,306.88Z"/><path class="cls-1" d="M252,358.31h0c-.06,1.15-2.44,2.68-3.44,2.76s-.85-.93-.89-2.15l0-.68a31.72,31.72,0,0,0-.75-6.5c-.58-2-1.5-4.92-.91-7.67s1.8-7.71,2.33-10.33a26.72,26.72,0,0,1,1.22-5.41,8,8,0,0,1,1.79-2.68c2.5-2.5,13.37-11.46,15.74-13.83s4.25-2.87,8.5-3.5,42.33-4.21,42.33-4.21a70.33,70.33,0,0,1,7.92,16,40.07,40.07,0,0,1,2.11,9.83c-10.38-.13-27.94-6-50-5.25-1.08,3.17-3.16,7.17-6.75,9.42s-9.77,3.94-10.63,5.8-2.76,5-3.39,6.82a31,31,0,0,0-1.48,7.07c-.23,2.69-1.71,4.43-2.89,4.69A.79.79,0,0,1,252,358.31Z"/><path class="cls-7" d="M327.88,329.9a40.07,40.07,0,0,0-2.11-9.83,70.33,70.33,0,0,0-7.92-16l-7.1.67c-5.78,10-15.19,16.76-20.62,20.09C306.46,326,319.51,329.8,327.88,329.9Z"/><path class="cls-5" d="M358.58,316.82c-8.83-10.87-23.16-18.34-27.8-20.34a9,9,0,0,0-1.45-.53c-1.12-.13-4,5.74-4,5.74a83.8,83.8,0,0,1,8,5.19c6.73,4.86,16.45,13.06,23.81,24.11"/><path class="cls-5" d="M332.36,296.87c4.06.5,20.49,3,33.53,12.39"/><path class="cls-5" d="M331.42,296.76l.93.11"/><path class="cls-5" d="M332.35,296.87h0c.37-.15,8.85-3.38,17.41-1.68"/><path class="cls-5" d="M325.33,301.69s-5.52,1.09-6.23,1.32a2.89,2.89,0,0,0-1.25,1.1,70.33,70.33,0,0,1,7.92,16,40.07,40.07,0,0,1,2.11,9.83,8.27,8.27,0,0,1,0,1.75,4.55,4.55,0,0,0,2.67,1.67c1.42.08,8.64,0,8.64,0s1.49-14.47-5.87-26.44"/><path class="cls-5" d="M298.54,207.65s13.73,6.8,24.48,15.67c-4.75,14.63-9.63,28.75-3.63,42.5s10.76,22.63,10.88,23.63-1.19,3.62-.62,4.62a25.67,25.67,0,0,1,1.13,2.41"/><path class="cls-5" d="M339.16,333.32s2,2,3.69,2,9.34-1,10.92-1,7.31,1.75,9.07,1,3.09-4.08,4.55-5.67,9.38-5.91,8.8-10.66-12.42-40-14.92-49-6.2-31.37-12.19-38.42c-.86-1-3.68-5.13-4.83-5.93"/><path class="cls-5" d="M317.85,304.11s-38.08,3.58-42.33,4.21-6.13,1.13-8.5,3.5-13.24,11.33-15.74,13.83a8,8,0,0,0-1.79,2.68,26.72,26.72,0,0,0-1.22,5.41c-.53,2.62-1.75,7.58-2.33,10.33s.33,5.67.91,7.67a31.72,31.72,0,0,1,.75,6.5l0,.68c0,1.22,0,2.22.89,2.15s3.38-1.61,3.44-2.76"/><path class="cls-5" d="M255.6,333.36s-2.75,8.21-3.41,10a10.13,10.13,0,0,0-.34,5c.17,1.92-.09,6.5-.15,7.81,0,.93-.11,1.83.27,2.17h0a.79.79,0,0,0,.74.14c1.18-.26,2.66-2,2.89-4.69a31,31,0,0,1,1.48-7.07c.63-1.81,2.53-5,3.39-6.82s7-3.55,10.63-5.8,5.67-6.25,6.75-9.42c22.09-.75,39.65,5.12,50,5.25"/><path class="cls-5" d="M249.48,328.33s-5.29,10.16-6.29,12.74a11.3,11.3,0,0,0-.36,7.69,60.08,60.08,0,0,1,1.88,8.19c.25,1.68-.19,3.06.5,3.31s2.37-1,2.42-1.34v0"/><path class="cls-16" d="M288,392.67a16.94,16.94,0,0,0,2.62,10.43,7.78,7.78,0,0,0-5.57-1.78c-3.43.25-13.95.65-19.66-1.14A218.54,218.54,0,0,0,288,392.67Z"/><path class="cls-16" d="M158.68,403.88c2.42-2.72,3.31-6.53,3.59-10.89a27.86,27.86,0,0,0-1.26-9.56c2.59,6.47,2.93,7.64,10.18,8a206.15,206.15,0,0,0,23.33-.85c3.84-.35,7.07-2.68,8.94-4.35a6.22,6.22,0,0,1,2.1,1.28c2.4,2.17,3.88,6.41,3.88,11.67a9.93,9.93,0,0,1-2.71,7.34,9.53,9.53,0,0,1-6.42,2.56,11.8,11.8,0,0,0-5.6-3.17c-3.32-.7-24-3.87-27.82-4.31a10.82,10.82,0,0,0-8.2,2.31Z"/><path class="cls-13" d="M294.68,407.15s-.41,1.44-4,1.44H268.39c-3.68,0-8.67-1.51-11.48-4.2a5.17,5.17,0,0,0,.86-2.15q4-1,7.65-2.06c5.71,1.79,16.23,1.39,19.66,1.14a7.78,7.78,0,0,1,5.57,1.78l0,0A14.47,14.47,0,0,0,294.68,407.15Z"/><path class="cls-13" d="M203.46,386.2c-1.87,1.67-5.1,4-8.94,4.35a206.15,206.15,0,0,1-23.33.85c-7.25-.33-7.59-1.5-10.18-8-1.36-4.5-3.53-8.37-5.35-9.95a47.45,47.45,0,0,1,13.11-1.4,116.4,116.4,0,0,0,36.41,12.38h0A19.31,19.31,0,0,1,203.46,386.2Z"/><path class="cls-16" d="M158.53,372.86c6.49,4.86,19.65,13.57,35.43,17.74l.56-.05c3.84-.35,7.07-2.68,8.94-4.35a19.31,19.31,0,0,0,1.72-1.73h0a116.4,116.4,0,0,1-36.41-12.38A46.43,46.43,0,0,0,158.53,372.86Z"/><path class="cls-13" d="M200.31,409.05a4.87,4.87,0,0,1-.54,0H155.69a16.67,16.67,0,0,1-5.85-1.05c4.16-.56,7-2,8.84-4.14h0a10.82,10.82,0,0,1,8.2-2.31c3.82.44,24.5,3.61,27.82,4.31A11.8,11.8,0,0,1,200.31,409.05Z"/><path class="cls-1" d="M311,380.21c14.32,8,17.17,23.58,6.67,28.38H314c4.75-6.72-.5-19.13-10.44-23.74a65.93,65.93,0,0,0,6.07-4.33C310.11,380.43,310.56,380.32,311,380.21Z"/><path class="cls-1" d="M303.58,384.85c9.94,4.61,15.19,17,10.44,23.74H298.27a7.59,7.59,0,0,1-3.59-1.44,14.47,14.47,0,0,1-4-4l0,0A16.94,16.94,0,0,1,288,392.67,95.51,95.51,0,0,0,303.58,384.85Z"/><path class="cls-7" d="M311,380.21c-.46.11-.91.22-1.37.31a65.93,65.93,0,0,1-6.07,4.33A95.51,95.51,0,0,1,288,392.67a16.94,16.94,0,0,0,2.62,10.43l0,0c.24.35.48.66.73,1,7.73-2.69,19.88-7.65,29.52-14.92A27.7,27.7,0,0,0,311,380.21Z"/><path class="cls-1" d="M168.77,372.08a47.45,47.45,0,0,0-13.11,1.4c-6.73,1.69-13.72,5.18-15.89,12.09-3.05,9.74,1.48,18.56,9,22-16.21-3.5-18.71-18.66-12.29-28.15,5.12-7.58,18.25-10.92,25.87-11.1C164.45,369.66,166.61,370.92,168.77,372.08Z"/><path class="cls-7" d="M139.58,376c1.76.66,3.68,1.38,5.67,2.1a29.39,29.39,0,0,1,10.41-4.64,47.45,47.45,0,0,1,13.11-1.4c-2.16-1.16-4.32-2.42-6.46-3.77C156,368.46,145.75,370.83,139.58,376Z"/><path class="cls-1" d="M161,383.43a27.86,27.86,0,0,1,1.26,9.56c-.28,4.36-1.17,8.17-3.59,10.89-1.87,2.12-4.68,3.58-8.84,4.14-.38-.14-.75-.29-1.11-.46-7.48-3.43-12-12.25-9-22,2.17-6.91,9.16-10.4,15.89-12.09C157.48,375.06,159.65,378.93,161,383.43Z"/><path class="cls-1" d="M227,397.07a34,34,0,0,0,5.81,8.19c-10.6,1.27-18.56,1.14-26.1,1.23a9.93,9.93,0,0,0,2.71-7.34c0-5.26-1.48-9.5-3.88-11.67l0,0A44.24,44.24,0,0,0,212.7,385a120.42,120.42,0,0,0,11.21-5.57C223.44,382.72,223.78,391,227,397.07Z"/><path class="cls-18" d="M239.77,389.9c4.75,12.09,18,12.34,18,12.34a5.17,5.17,0,0,1-.86,2.15,2.51,2.51,0,0,1-1.22.93c-1.75.58-10.42,2.67-12.59,3s-5,.5-6.66-.33a14.81,14.81,0,0,1-3.61-2.73,34,34,0,0,1-5.81-8.19c-3.24-6.08-3.58-14.35-3.11-17.66a2.81,2.81,0,0,1,.44-1.42c.92-.75,9.59-6.59,10.75-7.34s3.34,0,3.34,0S234.68,377,239.77,389.9Z"/><path class="cls-19" d="M183.92,327.57c.72.29,1.45.57,2.18.83,8.34,3,18,6.92,26.6,17.75s15.49,18.59,22.4,24.5c-1.16.75-9.83,6.59-10.75,7.34a2.81,2.81,0,0,0-.44,1.42A120.42,120.42,0,0,1,212.7,385a36.4,36.4,0,0,1-7.52-.52,116.4,116.4,0,0,1-36.41-12.38c-2.16-1.16-4.32-2.42-6.46-3.77-.76-.48-1.53-1-2.29-1.49-21.63-14.5-21.25-21.63-21.37-24s2.29-17.58,8.79-22.08,19.41-3.67,24.08-3.42,5.24,1.69,7.08,3.92C180.19,323.15,181.49,325.74,183.92,327.57Z"/><path class="cls-19" d="M373.25,361.65s3.35,8,0,20.67-16,26.27-31.6,26.27h-24c10.5-4.8,7.65-20.43-6.67-28.38-.46.11-.91.22-1.37.31a65.93,65.93,0,0,1-6.07,4.33A95.51,95.51,0,0,1,288,392.67a218.54,218.54,0,0,1-22.61,7.51q-3.65,1-7.65,2.06s-13.25-.25-18-12.34c-5.09-12.95-1.33-19.25-1.33-19.25,10.08-5.83,35.71-27.2,48.08-35.83s20-15.37,30.13-15.25c8.43.1,28.23,11.48,45.39,35.8C365.87,357.48,373.25,361.65,373.25,361.65Z"/><path class="cls-20" d="M317.69,408.59h24c15.62,0,28.24-13.64,31.6-26.27s0-20.67,0-20.67-2.24-1.27-4.89-2.75h0c.53,3-1.64,3.53-1.64,3.53,1.69,3.35-1.26,7.45-6.32,8.22s-14.31-3.14-20.19-5.08-6.91.26-6.91.26a6.43,6.43,0,0,1-4.65,1.78,4.12,4.12,0,0,1-3.54-.87c-.92-.88-2.71-1.27-3.16-.47s-.74,1.28-1.89,3.11-8.33.32-10.41,0-2.42,2-3.21,3.55-5.67,9.62-16.54,14.5-38.61,13.43-38.62,13.43h0s2.72.56,5.46,1.28c.65.07,1,.08,1,.08q4-1,7.65-2.06A218.54,218.54,0,0,0,288,392.67a95.51,95.51,0,0,0,15.55-7.82,65.93,65.93,0,0,0,6.07-4.33c.46-.09.91-.2,1.37-.31C325.34,388.16,328.19,403.79,317.69,408.59Z"/><path class="cls-5" d="M238.44,370.65s-2.17-.75-3.34,0-9.83,6.59-10.75,7.34a2.81,2.81,0,0,0-.44,1.42c-.47,3.31-.13,11.58,3.11,17.66a34,34,0,0,0,5.81,8.19,14.81,14.81,0,0,0,3.61,2.73c1.66.83,4.5.66,6.66.33s10.84-2.42,12.59-3a2.51,2.51,0,0,0,1.22-.93,5.17,5.17,0,0,0,.86-2.15s-13.25-.25-18-12.34C234.68,377,238.44,370.65,238.44,370.65Z"/><path class="cls-10" d="M363.69,356l1.41,2.36,1.45,2.42c.26.44.53.9.81,1.36s.58.93.84,1.42l4.08,7.85a.38.38,0,0,1-.66.38v0s-2.29-3.73-4.57-7.47c-.29-.46-.63-.9-.93-1.35l-.91-1.3c-.59-.85-1.14-1.64-1.62-2.31L362,357.06a1,1,0,1,1,1.64-1.14Z"/><path class="cls-5" d="M238.44,370.65c10.08-5.83,35.71-27.2,48.08-35.83s20-15.37,30.13-15.25c8.43.1,28.23,11.48,45.39,35.8l.81,1.15"/><path class="cls-10" d="M312.83,376.44l.25-.24.28-.26.39-.4,1.06-1.1c.43-.42.81-.92,1.27-1.44s.95-1.1,1.43-1.76,1-1.32,1.5-2.07,1-1.49,1.5-2.29l.74-1.21.69-1.25c.48-.82.9-1.68,1.33-2.51s.81-1.68,1.19-2.49.71-1.61,1-2.38.61-1.48.86-2.15c.5-1.35.9-2.48,1.16-3.27s.39-1.26.39-1.26a.39.39,0,0,1,.48-.28.41.41,0,0,1,.29.46s-.09.49-.28,1.32-.46,2-.9,3.42c-.2.7-.45,1.45-.72,2.25s-.59,1.62-.9,2.48-.7,1.73-1.1,2.6-.79,1.78-1.26,2.64l-.67,1.31-.72,1.27c-.47.85-1,1.65-1.49,2.42s-1,1.5-1.53,2.18-1,1.32-1.49,1.9-.93,1.12-1.35,1.52l-1.07,1.09-.39.4-.33.32-.26.23a1,1,0,1,1-1.37-1.45Z"/><path class="cls-5" d="M257.77,402.24q4-1,7.65-2.06A218.54,218.54,0,0,0,288,392.67a95.51,95.51,0,0,0,15.55-7.82,65.93,65.93,0,0,0,6.07-4.33c1.35-1.08,2.63-2.2,3.87-3.35"/><path class="cls-10" d="M309.44,379.54l.51-.13.6-.16.19-.05h0l.1,0,.43-.14c.6-.19,1.35-.4,2.17-.69s1.68-.64,2.64-1.06,2-.88,3.07-1.49c.53-.29,1.09-.57,1.64-.9l1.65-1c.58-.33,1.11-.75,1.68-1.13s1.13-.77,1.66-1.22l1.64-1.32,1.57-1.42c.53-.47,1-1,1.51-1.48a20.85,20.85,0,0,0,1.45-1.53l1.35-1.57,1.22-1.61c.42-.52.75-1.09,1.11-1.62s.73-1,1-1.57a33.92,33.92,0,0,0,1.62-3l.65-1.39c.19-.45.34-.88.5-1.29a19.71,19.71,0,0,0,.74-2.13c.35-1.21.56-1.9.56-1.9v0a.3.3,0,0,1,.37-.19.29.29,0,0,1,.2.32s-.11.73-.32,2a17.08,17.08,0,0,1-.52,2.26c-.12.44-.22.91-.37,1.39s-.36,1-.56,1.49a34.24,34.24,0,0,1-1.43,3.29c-.25.59-.62,1.14-.93,1.73a20.13,20.13,0,0,1-1.08,1.75l-1.19,1.75c-.45.56-.9,1.14-1.35,1.71s-.94,1.13-1.44,1.68-1,1.12-1.54,1.61L329,371.93l-1.71,1.41c-.55.48-1.15.89-1.73,1.32s-1.14.85-1.75,1.21L322,377c-.58.34-1.18.62-1.74.93-1.12.62-2.26,1.06-3.28,1.53s-2,.74-2.91,1.05-1.6.43-2.22.6l-.43.11-.1,0-.17,0-.19,0-.61.12-.51.1a1,1,0,0,1-.45-1.95Z"/><path class="cls-5" d="M311,380.21h0c14.32,8,17.17,23.58,6.67,28.38"/><path class="cls-5" d="M303.58,384.85c9.94,4.61,15.19,17,10.44,23.74h27.63c15.62,0,28.24-13.64,31.6-26.27s0-20.67,0-20.67-7.38-4.17-11.21-6.28"/><path class="cls-5" d="M290.65,403.1A16.94,16.94,0,0,1,288,392.67"/><path class="cls-5" d="M314,408.59H298.27a7.59,7.59,0,0,1-3.59-1.44,14.47,14.47,0,0,1-4-4"/><path class="cls-5" d="M294.68,407.15s-.41,1.44-4,1.44H268.39c-3.68,0-8.67-1.51-11.48-4.2"/><path class="cls-5" d="M290.67,403.12l0,0a7.78,7.78,0,0,0-5.57-1.78c-3.43.25-13.95.65-19.66-1.14"/><path class="cls-5" d="M223.91,379.41A120.42,120.42,0,0,1,212.7,385a44.24,44.24,0,0,1-7.12,2.47"/><path class="cls-5" d="M212.7,385a36.4,36.4,0,0,1-7.52-.52,116.4,116.4,0,0,1-36.41-12.38c-2.16-1.16-4.32-2.42-6.46-3.77-.76-.48-1.53-1-2.29-1.49-21.63-14.5-21.25-21.63-21.37-24s2.29-17.58,8.79-22.08,19.41-3.67,24.08-3.42,5.24,1.69,7.08,3.92c1.59,1.91,2.89,4.5,5.32,6.33"/><path class="cls-5" d="M170.19,320.65a96.85,96.85,0,0,0,13.73,6.92c.72.29,1.45.57,2.18.83,8.34,3,18,6.92,26.6,17.75s15.49,18.59,22.4,24.5"/><path class="cls-5" d="M168.77,372.08a47.45,47.45,0,0,0-13.11,1.4c-6.73,1.69-13.72,5.18-15.89,12.09-3.05,9.74,1.48,18.56,9,22,.36.17.73.32,1.11.46a16.4,16.4,0,0,0,5.82.57H199c.18,0,1.15,0,1.33,0,2.52-.1,4.76-.49,6.4-2.1a9.93,9.93,0,0,0,2.71-7.34c0-5.26-1.48-9.5-3.88-11.67a6.22,6.22,0,0,0-2.1-1.28"/><path class="cls-5" d="M206.73,406.49c7.54-.09,15.5,0,26.1-1.23"/><path class="cls-5" d="M149.84,408c4.16-.56,7-2,8.84-4.14,2.42-2.72,3.31-6.53,3.59-10.89a27.86,27.86,0,0,0-1.26-9.56c-1.36-4.5-3.53-8.37-5.35-9.95"/><path class="cls-5" d="M161,383.43c2.59,6.47,2.93,7.64,10.18,8a206.15,206.15,0,0,0,23.33-.85c3.84-.35,7.07-2.68,8.94-4.35a19.31,19.31,0,0,0,1.72-1.73"/><path class="cls-5" d="M158.69,403.88a10.82,10.82,0,0,1,8.2-2.31c3.82.44,24.5,3.61,27.82,4.31a9.8,9.8,0,0,1,5.08,2.72"/><path class="cls-5" d="M162.31,368.31c-7.62.18-20.75,3.52-25.87,11.1-6.42,9.49-3.92,24.65,12.29,28.15"/><path class="cls-21" d="M251.28,400.88s27.74-8.55,38.62-13.43,15.75-12.92,16.54-14.5,1.14-3.84,3.21-3.55,9.25,1.81,10.41,0,1.44-2.3,1.89-3.11,2.24-.41,3.16.47a4.12,4.12,0,0,0,3.54.87"/><path class="cls-21" d="M333.3,365.83s1-2.2,6.91-.26,15.13,5.85,20.19,5.08,8-4.87,6.32-8.22c0,0,2.17-.58,1.64-3.53"/><path class="cls-22" d="M170.16,404.1a2.46,2.46,0,0,1-2.78,2.1h0a2.46,2.46,0,0,1-2.09-2.78l2.1-15a2.46,2.46,0,0,1,2.78-2.1h0a2.46,2.46,0,0,1,2.09,2.78Z"/><path class="cls-22" d="M182.76,405.17a2.46,2.46,0,0,1-2.6,2.31h0a2.46,2.46,0,0,1-2.31-2.6l.9-15.17a2.48,2.48,0,0,1,2.61-2.31h0a2.46,2.46,0,0,1,2.3,2.6Z"/><path class="cls-22" d="M194.07,405.08a2.46,2.46,0,0,1-2.51,2.41h0a2.46,2.46,0,0,1-2.41-2.5l.3-15.19a2.45,2.45,0,0,1,2.51-2.41h0a2.46,2.46,0,0,1,2.41,2.5Z"/></g></svg>