<svg xmlns="http://www.w3.org/2000/svg" xmlns:xlink="http://www.w3.org/1999/xlink" viewBox="0 0 401.42 367.74"><defs><style>.cls-1,.cls-3,.cls-6,.cls-9{fill:#fff;}.cls-1,.cls-11,.cls-12,.cls-14,.cls-4{stroke:#263238;}.cls-1,.cls-11,.cls-12,.cls-14,.cls-15,.cls-4,.cls-7{stroke-linecap:round;stroke-linejoin:round;}.cls-14,.cls-2{fill:#c6ff00;}.cls-3{opacity:0.8;}.cls-15,.cls-4,.cls-7{fill:none;}.cls-12,.cls-5{fill:#263238;}.cls-6,.cls-8{opacity:0.65;}.cls-7{stroke:#ccc;stroke-width:1.25px;}.cls-8{fill:#e5e5e5;}.cls-10{clip-path:url(#clip-path);}.cls-11{opacity:0.24;}.cls-13{clip-path:url(#clip-path-2);}.cls-15{stroke:#fff;}</style><clipPath id="clip-path" transform="translate(-53.89 -56.37)"><path class="cls-1" d="M271.67,312.44a39.33,39.33,0,0,0,0,20.4h42.6s-4.48-12.94,0-20.4Z"/></clipPath><clipPath id="clip-path-2" transform="translate(-53.89 -56.37)"><path class="cls-1" d="M272.33,357.11a39.44,39.44,0,0,0,0,20.4h41.94s-4.48-12.94,0-20.4Z"/></clipPath></defs><title>Literature3</title><g id="Background_Simple" data-name="Background Simple"><path class="cls-2" d="M411,111.85s-24.44-47.5-78.41-54.54S241,84.58,201.26,102.18c-20.8,9.21-44.56,5.63-66.64,10.09C64,126.53,37.43,215.87,66.84,266.68c25.46,44,70.26,66.86,138.49,72.14s116.09,11.43,177.2-31.67S439.55,174.31,411,111.85Z" transform="translate(-53.89 -56.37)"/><path class="cls-3" d="M411,111.85s-24.44-47.5-78.41-54.54S241,84.58,201.26,102.18c-20.8,9.21-44.56,5.63-66.64,10.09C64,126.53,37.43,215.87,66.84,266.68c25.46,44,70.26,66.86,138.49,72.14s116.09,11.43,177.2-31.67S439.55,174.31,411,111.85Z" transform="translate(-53.89 -56.37)"/></g><g id="Books"><path class="cls-4" d="M353.83,151.91l-10.5,43.8s3.62,5.07,5.07,6.51,4.7,1.45,5.79,1.45,42,.73,42,.73l8.05-53.58" transform="translate(-53.89 -56.37)"/><line class="cls-4" x1="308.7" y1="87.27" x2="305.36" y2="87.21"/><polyline class="cls-4" points="291.61 140.06 335.77 139.91 345.18 87.93 312.79 87.34"/><polyline class="cls-4" points="294.14 140.42 297.76 144.4 340.12 145.49 347.78 99.04 344.46 94.45"/><path class="cls-5" d="M355.44,199.09h6.13s-1,4.86-1.53,9.45-.77,10.48-.77,10.48l-3.57-6.65L351.35,218Z" transform="translate(-53.89 -56.37)"/><path class="cls-4" d="M97.09,208.69l26.1-10.52s1.27-3.68,1.49-4.94-1-2.92-1.36-3.47-14.84-21.65-14.84-21.65L78.29,183.42" transform="translate(-53.89 -56.37)"/><line class="cls-4" x1="35.81" y1="150.84" x2="36.99" y2="152.57"/><polyline class="cls-4" points="68.88 140.43 52.81 118 22.94 132.03 34.37 148.73"/><polyline class="cls-4" points="68.15 139.01 68.87 135.72 54.08 113.77 27.66 126.68 26.52 130.04"/><path class="cls-5" d="M120.53,190.78l-2.22-3.12s2.84-1.24,5.37-2.65,5.61-3.4,5.61-3.4l-2.09,4.23,4.43.17Z" transform="translate(-53.89 -56.37)"/><polyline class="cls-4" points="42.56 193.32 40.5 194.35 58.79 229.36 89.42 196.74 126.81 185.21 108.11 155.37 106.47 155.5"/><path class="cls-4" d="M123.82,220.1l16.31,29.43s-7.16-1.59-8.75,5.18-8.75,15.51-11.93,19.49a59.77,59.77,0,0,1-6.37,6.76l-17.5-33.41s8.35-6.77,12.33-16.31S118.25,218.91,123.82,220.1Z" transform="translate(-53.89 -56.37)"/><path class="cls-4" d="M140.13,249.53s2-6,6.76-6.36S160.41,244.36,168,242s8.75-3.19,8.75-3.19L158.43,209s-4.38,3.58-15.52,3.58-17.9,2-19.09,7.56Z" transform="translate(-53.89 -56.37)"/><path class="cls-4" d="M141.32,252.72a24.3,24.3,0,0,0-5.57,3.58c-2.78,2.38-5.17,6.76-9.94,12.72" transform="translate(-53.89 -56.37)"/><path class="cls-4" d="M144.5,250.33a11.34,11.34,0,0,1,7.16-4,73.57,73.57,0,0,0,24.27-5.17" transform="translate(-53.89 -56.37)"/><path class="cls-4" d="M101.55,251.92a136.18,136.18,0,0,0,9.54-12.33c5.57-8,9.55-11.14,13.92-11.14" transform="translate(-53.89 -56.37)"/><path class="cls-4" d="M104.73,257.09a134,134,0,0,0,9.54-12.33c5.57-7.95,9.55-11.14,13.93-11.14" transform="translate(-53.89 -56.37)"/><path class="cls-4" d="M107.91,262.26a134.9,134.9,0,0,0,9.55-12.33c5.57-8,9.54-11.14,13.92-11.14" transform="translate(-53.89 -56.37)"/><path class="cls-4" d="M111.09,267.43a134.9,134.9,0,0,0,9.55-12.33c5.57-7.95,9.55-11.13,13.92-11.13" transform="translate(-53.89 -56.37)"/><path class="cls-4" d="M130.58,226.07s1.59-4.38,7.56-4.38,19.14-.52,20.68-5.17" transform="translate(-53.89 -56.37)"/><path class="cls-4" d="M134.16,232s2.79-3.58,10.34-3.58,14.32-1.59,18.7-6" transform="translate(-53.89 -56.37)"/><path class="cls-4" d="M136.55,238a10,10,0,0,1,9.15-5.17c6.76,0,15.11-1.19,19.89-4.77" transform="translate(-53.89 -56.37)"/><path class="cls-4" d="M139.33,242.37s1.2-4,8-4.37a67.47,67.47,0,0,0,21.48-4.77" transform="translate(-53.89 -56.37)"/><polyline class="cls-4" points="259.14 14.56 258.1 13.37 237.97 31.6 264.98 46.33 279.13 69.21 295.74 51.6 295.37 50.53"/><path class="cls-4" d="M337.46,84,320.7,100s-.18-5-4.95-4.93-11.84-3.14-15-4.56a39.84,39.84,0,0,1-5.6-3.07L314.31,70a32.48,32.48,0,0,0,13,5.38C334.34,76.35,337.29,80.11,337.46,84Z" transform="translate(-53.89 -56.37)"/><path class="cls-4" d="M320.7,100s4.32.29,5.41,3.39,1.55,9.21,4.44,13.82,3.64,5.27,3.64,5.27l16.68-17.34s-3.14-2.29-5.07-9.7S341.37,83.85,337.46,84Z" transform="translate(-53.89 -56.37)"/><path class="cls-4" d="M318.79,101.31a16.66,16.66,0,0,0-3.34-3.08c-2.07-1.44-5.4-2.27-10.19-4.42" transform="translate(-53.89 -56.37)"/><path class="cls-4" d="M320.93,103a7.8,7.8,0,0,1,3.89,4.08,50.48,50.48,0,0,0,7.64,15.25" transform="translate(-53.89 -56.37)"/><path class="cls-4" d="M312.43,74.71a92.47,92.47,0,0,0,9.86,4.21c6.26,2.33,9.06,4.43,9.82,7.34" transform="translate(-53.89 -56.37)"/><path class="cls-4" d="M309.54,77.72a93.52,93.52,0,0,0,9.86,4.22c6.26,2.32,9.06,4.42,9.82,7.33" transform="translate(-53.89 -56.37)"/><path class="cls-4" d="M306.65,80.73A93.52,93.52,0,0,0,316.51,85c6.26,2.33,9.07,4.42,9.82,7.33" transform="translate(-53.89 -56.37)"/><path class="cls-4" d="M303.76,83.75A93.67,93.67,0,0,0,313.62,88c6.26,2.33,9.07,4.43,9.82,7.34" transform="translate(-53.89 -56.37)"/><path class="cls-4" d="M334.66,89.55s3.19.3,4.22,4.27,3.67,12.65,7,12.87" transform="translate(-53.89 -56.37)"/><path class="cls-4" d="M331.31,93s2.87,1.24,4.18,6.27,3.54,9.25,7.21,11.4" transform="translate(-53.89 -56.37)"/><path class="cls-4" d="M327.76,95.59a6.85,6.85,0,0,1,5,5.19c1.17,4.5,3.41,9.85,6.62,12.4" transform="translate(-53.89 -56.37)"/><path class="cls-4" d="M325.33,98.2s2.85.1,4.29,4.53a46.32,46.32,0,0,0,6.89,13.47" transform="translate(-53.89 -56.37)"/><polyline class="cls-4" points="113.66 54.14 96.95 80.33 100.56 81.24 117.28 56.4 143.92 71.75 147.54 68.14 118.18 52.78"/><polyline class="cls-4" points="117.28 56.4 124.5 99.75 146.63 112.4 143.47 74.01"/><polyline class="cls-4" points="146.63 112.4 150.25 105.63 147.54 68.14"/><polyline class="cls-4" points="124.5 99.75 109.6 120.08 101.92 84.85"/><polyline class="cls-4" points="96.95 80.33 105.53 119.63 109.6 120.08"/><line class="cls-4" x1="118.18" y1="71.3" x2="106.44" y2="87.56"/><line class="cls-4" x1="119.08" y1="78.98" x2="107.34" y2="95.24"/><line class="cls-4" x1="119.99" y1="86.66" x2="108.24" y2="102.91"/><line class="cls-4" x1="120.89" y1="94.33" x2="109.15" y2="110.59"/><line class="cls-4" x1="123.15" y1="71.75" x2="138.96" y2="80.78"/><line class="cls-4" x1="123.15" y1="78.98" x2="138.96" y2="88.01"/><line class="cls-4" x1="125.41" y1="86.66" x2="141.21" y2="95.69"/><line class="cls-4" x1="125.86" y1="94.33" x2="141.67" y2="103.37"/><polyline class="cls-4" points="342.49 244.3 356.48 216.56 352.79 216.02 338.67 242.42 310.61 229.83 307.38 233.78 338.13 246.11"/><polyline class="cls-4" points="338.67 242.42 327.11 200.01 303.82 189.66 310.83 227.53"/><polyline class="cls-4" points="303.82 189.66 300.9 196.76 307.38 233.78"/><polyline class="cls-4" points="327.11 200.01 339.89 178.29 351.08 212.57"/><polyline class="cls-4" points="356.48 216.56 343.98 178.33 339.89 178.29"/><line class="cls-4" x1="336.27" y1="227.68" x2="346.31" y2="210.32"/><line class="cls-4" x1="334.59" y1="220.14" x2="344.64" y2="202.78"/><line class="cls-4" x1="332.92" y1="212.59" x2="342.97" y2="195.23"/><line class="cls-4" x1="331.25" y1="205.04" x2="341.3" y2="187.68"/><line class="cls-4" x1="331.28" y1="227.73" x2="314.64" y2="220.34"/><line class="cls-4" x1="330.55" y1="220.54" x2="313.91" y2="213.15"/><line class="cls-4" x1="327.53" y1="213.13" x2="310.89" y2="205.74"/><line class="cls-4" x1="326.31" y1="205.54" x2="309.67" y2="198.14"/></g><g id="Plants"><path class="cls-2" d="M335.71,315.09c-2.8,6.93-5.68,1.36-5.22-27.67.21-13.61,1.17-41.41,16.22-35.29,14.45,5.88-4.6,47-4.6,47Zm20.67,4.12s31.37-32.69,19.61-42.95c-12.25-10.67-22.18,15.31-26.81,28.11-9.86,27.31-8.94,33.51-4,27.88ZM363,348.55s28.72-20.45,21.21-30c-7.82-9.93-19.18,8.49-24.57,17.61-11.49,19.45-11.69,24.33-7.13,20.73Zm7.77,29.25s28.72-20.45,21.21-30c-7.81-9.94-19.17,8.49-24.56,17.6-11.5,19.45-11.7,24.33-7.13,20.73ZM320.61,319s-40.19-20.92-46.72-6.75c-6.81,14.76,20.92,17,34.5,17.83,29,1.78,34.68-.84,27.89-4Zm5.66,23s-43.54-12.52-47.13,2.67C275.4,360.5,303,357.18,316.5,355.3c28.76-4,33.82-7.71,26.55-9.42Zm10,25.1s-37.12-9.57-39.8,3.36c-2.79,13.45,20.49,10,31.84,8.1,24.23-4.05,28.42-7.3,22.23-8.58Zm5.81,20.73s-35.89-13.46-39.93-.89c-4.21,13.09,19.31,12.13,30.8,11.44,24.52-1.46,29-4.24,23-6.17Zm-24-105s-16.38-50.92-35-41.67c-19.36,9.63,3,32.59,14.19,43.58,23.87,23.46,31.26,25.1,28.12,16.91Z" transform="translate(-53.89 -56.37)"/><path class="cls-6" d="M335.71,315.09c-2.8,6.93-5.68,1.36-5.22-27.67.21-13.61,1.17-41.41,16.22-35.29,14.45,5.88-4.6,47-4.6,47Zm20.67,4.12s31.37-32.69,19.61-42.95c-12.25-10.67-22.18,15.31-26.81,28.11-9.86,27.31-8.94,33.51-4,27.88ZM363,348.55s28.72-20.45,21.21-30c-7.82-9.93-19.18,8.49-24.57,17.61-11.49,19.45-11.69,24.33-7.13,20.73Zm7.77,29.25s28.72-20.45,21.21-30c-7.81-9.94-19.17,8.49-24.56,17.6-11.5,19.45-11.7,24.33-7.13,20.73ZM320.61,319s-40.19-20.92-46.72-6.75c-6.81,14.76,20.92,17,34.5,17.83,29,1.78,34.68-.84,27.89-4Zm5.66,23s-43.54-12.52-47.13,2.67C275.4,360.5,303,357.18,316.5,355.3c28.76-4,33.82-7.71,26.55-9.42Zm10,25.1s-37.12-9.57-39.8,3.36c-2.79,13.45,20.49,10,31.84,8.1,24.23-4.05,28.42-7.3,22.23-8.58Zm5.81,20.73s-35.89-13.46-39.93-.89c-4.21,13.09,19.31,12.13,30.8,11.44,24.52-1.46,29-4.24,23-6.17Zm-24-105s-16.38-50.92-35-41.67c-19.36,9.63,3,32.59,14.19,43.58,23.87,23.46,31.26,25.1,28.12,16.91Z" transform="translate(-53.89 -56.37)"/><path class="cls-7" d="M290.82,259.32s41.15,50.21,51,75.34c11.31,28.87,19,61.4,20.55,88.34" transform="translate(-53.89 -56.37)"/><line class="cls-7" x1="279.73" y1="261.89" x2="285.45" y2="214.02"/><line class="cls-7" x1="287.92" y1="278.29" x2="308.62" y2="238.05"/><line class="cls-7" x1="284.9" y1="272.32" x2="241.55" y2="263.49"/><line class="cls-7" x1="296.07" y1="301.12" x2="321.56" y2="272.08"/><line class="cls-7" x1="292.5" y1="291.55" x2="259.78" y2="291.27"/><line class="cls-7" x1="298.8" y1="315.31" x2="273.71" y2="316.31"/><line class="cls-7" x1="303.96" y1="330.48" x2="317.4" y2="312.56"/><line class="cls-7" x1="304.94" y1="337.14" x2="275.59" y2="335.68"/><path class="cls-2" d="M414.86,354.75c-5.07,1.91-3.52-2.36,12.15-16.39,7.34-6.57,22.6-19.73,26.74-8.72,4,10.58-27.25,20.65-27.25,20.65Zm8,13s32.8.62,32.48-10.68c-.34-11.76-19.05-4.27-28.13-.44-19.37,8.18-22.22,11.71-16.81,11.55ZM410.47,385.7s25,5.23,26.38-3.46c1.45-9-13.94-6-21.44-4.41-16,3.45-18.69,5.74-14.53,6.4Zm-11.74,18.52s25,5.22,26.38-3.46c1.45-9-13.94-6-21.44-4.42-16,3.45-18.69,5.74-14.53,6.4Zm6.63-55.59S396.73,317,386,320.46c-11.19,3.63,1.25,19.48,7.48,27.11,13.3,16.3,17.49,18,15.81,12.89ZM395.89,363s-14.75-29.32-24.59-23.76C361.06,345,376.4,358,384,364.29c16.27,13.33,20.73,14.2,18.06,9.49Zm-8.45,17.64s-13.15-24.45-21.35-19.52c-8.53,5.13,4.75,15.82,11.34,20.92,14.07,10.89,17.85,11.53,15.49,7.61Zm-8.17,13.28s-10.48-25.71-19.16-21.68c-9,4.2,3.05,16.23,9.06,22,12.83,12.32,16.53,13.36,14.59,9.21Zm44-64.39s19-33.75,5-39.09c-14.64-5.57-15.86,17.61-16.2,29-.75,24.22,2,29,4.82,23.26Z" transform="translate(-53.89 -56.37)"/><path class="cls-8" d="M414.86,354.75c-5.07,1.91-3.52-2.36,12.15-16.39,7.34-6.57,22.6-19.73,26.74-8.72,4,10.58-27.25,20.65-27.25,20.65Zm8,13s32.8.62,32.48-10.68c-.34-11.76-19.05-4.27-28.13-.44-19.37,8.18-22.22,11.71-16.81,11.55ZM410.47,385.7s25,5.23,26.38-3.46c1.45-9-13.94-6-21.44-4.41-16,3.45-18.69,5.74-14.53,6.4Zm-11.74,18.52s25,5.22,26.38-3.46c1.45-9-13.94-6-21.44-4.42-16,3.45-18.69,5.74-14.53,6.4Zm6.63-55.59S396.73,317,386,320.46c-11.19,3.63,1.25,19.48,7.48,27.11,13.3,16.3,17.49,18,15.81,12.89ZM395.89,363s-14.75-29.32-24.59-23.76C361.06,345,376.4,358,384,364.29c16.27,13.33,20.73,14.2,18.06,9.49Zm-8.45,17.64s-13.15-24.45-21.35-19.52c-8.53,5.13,4.75,15.82,11.34,20.92,14.07,10.89,17.85,11.53,15.49,7.61Zm-8.17,13.28s-10.48-25.71-19.16-21.68c-9,4.2,3.05,16.23,9.06,22,12.83,12.32,16.53,13.36,14.59,9.21Zm44-64.39s19-33.75,5-39.09c-14.64-5.57-15.86,17.61-16.2,29-.75,24.22,2,29,4.82,23.26Z" transform="translate(-53.89 -56.37)"/><path class="cls-7" d="M422.45,303.45s-6.48,46.57-15,64.16c-9.8,20.21-24.59,41.72-38.17,55.77" transform="translate(-53.89 -56.37)"/><line class="cls-7" x1="358.25" y1="298.82" x2="386.53" y2="278.33"/><line class="cls-7" x1="353.55" y1="311.23" x2="385.13" y2="302.47"/><line class="cls-7" x1="355.24" y1="306.7" x2="338.63" y2="279.29"/><line class="cls-7" x1="345.41" y1="326.79" x2="373.39" y2="326.07"/><line class="cls-7" x1="348.75" y1="320.19" x2="332.81" y2="302.64"/><line class="cls-7" x1="339.21" y1="335.22" x2="326.34" y2="322.36"/><line class="cls-7" x1="333.68" y1="345.42" x2="349.81" y2="343.76"/><line class="cls-7" x1="330.62" y1="349.22" x2="316.96" y2="332.88"/><path class="cls-2" d="M173.49,315.09c2.8,6.93,5.68,1.36,5.23-27.67-.22-13.61-1.18-41.41-16.23-35.29-14.45,5.88,4.6,47,4.6,47Zm-20.67,4.12s-31.37-32.69-19.61-42.95c12.25-10.67,22.19,15.31,26.81,28.11,9.86,27.31,8.94,33.51,4,27.88Zm-6.62,29.34s-28.72-20.45-21.21-30c7.82-9.93,19.18,8.49,24.57,17.61,11.49,19.45,11.69,24.33,7.13,20.73Zm-7.77,29.25s-28.72-20.45-21.21-30c7.81-9.94,19.17,8.49,24.56,17.6,11.5,19.45,11.7,24.33,7.13,20.73ZM188.59,319s40.19-20.92,46.72-6.75c6.81,14.76-20.92,17-34.5,17.83-29,1.78-34.68-.84-27.89-4Zm-5.66,23s43.55-12.52,47.13,2.67c3.74,15.81-23.88,12.49-37.36,10.61-28.76-4-33.82-7.71-26.54-9.42Zm-10,25.1s37.12-9.57,39.8,3.36c2.79,13.45-20.49,10-31.84,8.1-24.23-4.05-28.42-7.3-22.23-8.58Zm-5.81,20.73S203,374.39,207.08,387c4.21,13.09-19.31,12.13-30.8,11.44-24.52-1.46-29-4.24-23-6.17Zm24-105s16.39-50.92,35-41.67c19.36,9.63-3,32.59-14.19,43.58-23.87,23.46-31.26,25.1-28.11,16.91Z" transform="translate(-53.89 -56.37)"/><path class="cls-6" d="M173.49,315.09c2.8,6.93,5.68,1.36,5.23-27.67-.22-13.61-1.18-41.41-16.23-35.29-14.45,5.88,4.6,47,4.6,47Zm-20.67,4.12s-31.37-32.69-19.61-42.95c12.25-10.67,22.19,15.31,26.81,28.11,9.86,27.31,8.94,33.51,4,27.88Zm-6.62,29.34s-28.72-20.45-21.21-30c7.82-9.93,19.18,8.49,24.57,17.61,11.49,19.45,11.69,24.33,7.13,20.73Zm-7.77,29.25s-28.72-20.45-21.21-30c7.81-9.94,19.17,8.49,24.56,17.6,11.5,19.45,11.7,24.33,7.13,20.73ZM188.59,319s40.19-20.92,46.72-6.75c6.81,14.76-20.92,17-34.5,17.83-29,1.78-34.68-.84-27.89-4Zm-5.66,23s43.55-12.52,47.13,2.67c3.74,15.81-23.88,12.49-37.36,10.61-28.76-4-33.82-7.71-26.54-9.42Zm-10,25.1s37.12-9.57,39.8,3.36c2.79,13.45-20.49,10-31.84,8.1-24.23-4.05-28.42-7.3-22.23-8.58Zm-5.81,20.73S203,374.39,207.08,387c4.21,13.09-19.31,12.13-30.8,11.44-24.52-1.46-29-4.24-23-6.17Zm24-105s16.39-50.92,35-41.67c19.36,9.63-3,32.59-14.19,43.58-23.87,23.46-31.26,25.1-28.11,16.91Z" transform="translate(-53.89 -56.37)"/><path class="cls-7" d="M218.38,259.32s-41.15,50.21-51,75.34c-11.31,28.87-19,61.4-20.55,88.34" transform="translate(-53.89 -56.37)"/><line class="cls-7" x1="121.69" y1="261.89" x2="115.97" y2="214.02"/><line class="cls-7" x1="113.5" y1="278.29" x2="92.8" y2="238.05"/><line class="cls-7" x1="116.52" y1="272.32" x2="159.87" y2="263.49"/><line class="cls-7" x1="105.35" y1="301.12" x2="79.86" y2="272.08"/><line class="cls-7" x1="108.91" y1="291.55" x2="141.64" y2="291.27"/><line class="cls-7" x1="102.61" y1="315.31" x2="127.71" y2="316.31"/><line class="cls-7" x1="97.46" y1="330.48" x2="84.01" y2="312.56"/><line class="cls-7" x1="96.47" y1="337.14" x2="125.83" y2="335.68"/><path class="cls-2" d="M94.35,354.75c5.06,1.91,3.51-2.36-12.16-16.39-7.34-6.57-22.6-19.73-26.74-8.72-4,10.58,27.25,20.65,27.25,20.65Zm-8,13s-32.81.62-32.49-10.68c.35-11.76,19-4.27,28.13-.44,19.37,8.18,22.22,11.71,16.82,11.55ZM98.73,385.7s-25,5.23-26.38-3.46c-1.44-9,13.94-6,21.44-4.41,16,3.45,18.69,5.74,14.53,6.4Zm11.74,18.52s-25,5.22-26.38-3.46c-1.45-9,13.94-6,21.44-4.42,16,3.45,18.69,5.74,14.53,6.4Zm-6.63-55.59s8.63-31.66,19.38-28.17c11.19,3.63-1.25,19.48-7.48,27.11-13.3,16.3-17.49,18-15.81,12.89ZM113.31,363s14.75-29.32,24.59-23.76c10.25,5.79-5.1,18.84-12.72,25.09-16.27,13.33-20.73,14.2-18.06,9.49Zm8.45,17.64s13.15-24.45,21.35-19.52c8.53,5.13-4.75,15.82-11.34,20.92-14.07,10.89-17.85,11.53-15.49,7.61Zm8.17,13.28s10.48-25.71,19.16-21.68c9,4.2-3.05,16.23-9.06,22-12.83,12.32-16.53,13.36-14.59,9.21Zm-44-64.39s-19-33.75-5-39.09c14.64-5.57,15.86,17.61,16.21,29,.74,24.22-2,29-4.83,23.26Z" transform="translate(-53.89 -56.37)"/><path class="cls-8" d="M94.35,354.75c5.06,1.91,3.51-2.36-12.16-16.39-7.34-6.57-22.6-19.73-26.74-8.72-4,10.58,27.25,20.65,27.25,20.65Zm-8,13s-32.81.62-32.49-10.68c.35-11.76,19-4.27,28.13-.44,19.37,8.18,22.22,11.71,16.82,11.55ZM98.73,385.7s-25,5.23-26.38-3.46c-1.44-9,13.94-6,21.44-4.41,16,3.45,18.69,5.74,14.53,6.4Zm11.74,18.52s-25,5.22-26.38-3.46c-1.45-9,13.94-6,21.44-4.42,16,3.45,18.69,5.74,14.53,6.4Zm-6.63-55.59s8.63-31.66,19.38-28.17c11.19,3.63-1.25,19.48-7.48,27.11-13.3,16.3-17.49,18-15.81,12.89ZM113.31,363s14.75-29.32,24.59-23.76c10.25,5.79-5.1,18.84-12.72,25.09-16.27,13.33-20.73,14.2-18.06,9.49Zm8.45,17.64s13.15-24.45,21.35-19.52c8.53,5.13-4.75,15.82-11.34,20.92-14.07,10.89-17.85,11.53-15.49,7.61Zm8.17,13.28s10.48-25.71,19.16-21.68c9,4.2-3.05,16.23-9.06,22-12.83,12.32-16.53,13.36-14.59,9.21Zm-44-64.39s-19-33.75-5-39.09c14.64-5.57,15.86,17.61,16.21,29,.74,24.22-2,29-4.83,23.26Z" transform="translate(-53.89 -56.37)"/><path class="cls-7" d="M86.75,303.45s6.48,46.57,15,64.16c9.79,20.21,24.58,41.72,38.16,55.77" transform="translate(-53.89 -56.37)"/><line class="cls-7" x1="43.17" y1="298.82" x2="14.89" y2="278.33"/><line class="cls-7" x1="47.86" y1="311.23" x2="16.28" y2="302.47"/><line class="cls-7" x1="46.18" y1="306.7" x2="62.79" y2="279.29"/><line class="cls-7" x1="56.01" y1="326.79" x2="28.03" y2="326.07"/><line class="cls-7" x1="52.67" y1="320.19" x2="68.6" y2="302.64"/><line class="cls-7" x1="62.21" y1="335.22" x2="75.08" y2="322.36"/><line class="cls-7" x1="67.74" y1="345.42" x2="51.6" y2="343.76"/><line class="cls-7" x1="70.8" y1="349.22" x2="84.46" y2="332.88"/></g><g id="Character"><rect class="cls-1" x="133.76" y="255.32" width="105.72" height="21.64"/><line class="cls-4" x1="134.85" y1="260.94" x2="153.41" y2="260.94"/><line class="cls-4" x1="159.6" y1="266.84" x2="162.13" y2="266.84"/><line class="cls-4" x1="134.57" y1="266.84" x2="155.38" y2="266.84"/><line class="cls-4" x1="135.01" y1="272.96" x2="143.57" y2="272.96"/><path class="cls-9" d="M271.67,312.44a39.33,39.33,0,0,0,0,20.4h42.6s-4.48-12.94,0-20.4Z" transform="translate(-53.89 -56.37)"/><g class="cls-10"><path class="cls-11" d="M271.67,312.44a39.33,39.33,0,0,0,0,20.4h42.6s-4.48-12.94,0-20.4Z" transform="translate(-53.89 -56.37)"/></g><path class="cls-4" d="M271.67,312.44a39.33,39.33,0,0,0,0,20.4h42.6s-4.48-12.94,0-20.4Z" transform="translate(-53.89 -56.37)"/><path class="cls-12" d="M188.9,329.33V314.56a1.37,1.37,0,0,1,1.37-1.37H316a1,1,0,0,0,1-1h0a1,1,0,0,0-1-1H186.87a1.37,1.37,0,0,0-1.37,1.37V331.4a2.21,2.21,0,0,0,2.21,2.22H316a1,1,0,0,0,1-1h0a1,1,0,0,0-1-1H191.11A2.22,2.22,0,0,1,188.9,329.33Z" transform="translate(-53.89 -56.37)"/><rect class="cls-1" x="133.76" y="299.99" width="105.72" height="21.64"/><line class="cls-4" x1="135.53" y1="304.16" x2="154.08" y2="304.16"/><line class="cls-4" x1="160.27" y1="310.06" x2="162.8" y2="310.06"/><line class="cls-4" x1="135.24" y1="310.06" x2="156.05" y2="310.06"/><line class="cls-4" x1="135.68" y1="316.18" x2="144.24" y2="316.18"/><path class="cls-9" d="M272.33,357.11a39.44,39.44,0,0,0,0,20.4h41.94s-4.48-12.94,0-20.4Z" transform="translate(-53.89 -56.37)"/><g class="cls-13"><path class="cls-11" d="M272.33,357.11a39.44,39.44,0,0,0,0,20.4h41.94s-4.48-12.94,0-20.4Z" transform="translate(-53.89 -56.37)"/></g><path class="cls-4" d="M272.33,357.11a39.44,39.44,0,0,0,0,20.4h41.94s-4.48-12.94,0-20.4Z" transform="translate(-53.89 -56.37)"/><path class="cls-12" d="M188.9,374V359.22a1.37,1.37,0,0,1,1.37-1.37H316a1,1,0,0,0,1-1h0a1,1,0,0,0-1-1H186.87a1.37,1.37,0,0,0-1.37,1.37v18.92a2.21,2.21,0,0,0,2.21,2.21H316a1,1,0,0,0,1-1h0a1,1,0,0,0-1-1H191.11A2.21,2.21,0,0,1,188.9,374Z" transform="translate(-53.89 -56.37)"/><path class="cls-1" d="M189,398.62c.74-2.49,3.46-12.76.1-19.34H310.76v19.34Z" transform="translate(-53.89 -56.37)"/><line class="cls-4" x1="207.74" y1="327.19" x2="189.18" y2="327.19"/><line class="cls-4" x1="183" y1="333.09" x2="180.47" y2="333.09"/><line class="cls-4" x1="208.02" y1="333.09" x2="187.22" y2="333.09"/><line class="cls-4" x1="207.59" y1="339.21" x2="199.03" y2="339.21"/><path class="cls-12" d="M262.32,396.67V381.89a1.37,1.37,0,0,0-1.37-1.37H186.54a1,1,0,0,1-1-1h0a1,1,0,0,1,1-1H315.63a1.37,1.37,0,0,1,1.37,1.37v18.92a2.21,2.21,0,0,1-2.21,2.21H186.54a1,1,0,0,1-1-1h0a1,1,0,0,1,1-1h73.57A2.21,2.21,0,0,0,262.32,396.67Z" transform="translate(-53.89 -56.37)"/><path class="cls-1" d="M189,421.28c.74-2.48,3.46-12.75.1-19.33H310.76v19.33Z" transform="translate(-53.89 -56.37)"/><line class="cls-4" x1="207.69" y1="349.99" x2="189.13" y2="349.99"/><line class="cls-4" x1="182.94" y1="355.9" x2="180.41" y2="355.9"/><line class="cls-4" x1="207.97" y1="355.9" x2="187.16" y2="355.9"/><line class="cls-4" x1="207.53" y1="362.01" x2="198.97" y2="362.01"/><path class="cls-14" d="M262.32,419.33V404.56a1.37,1.37,0,0,0-1.37-1.37H186.54a1,1,0,0,1-1-1h0a1,1,0,0,1,1-1H315.63a1.37,1.37,0,0,1,1.37,1.37V421.4a2.21,2.21,0,0,1-2.21,2.22H186.54a1,1,0,0,1-1-1h0a1,1,0,0,1,1-1h73.57A2.22,2.22,0,0,0,262.32,419.33Z" transform="translate(-53.89 -56.37)"/><path class="cls-1" d="M189,353.28c.74-2.48,3.46-12.75.1-19.33H310.76v19.33Z" transform="translate(-53.89 -56.37)"/><line class="cls-4" x1="208.01" y1="281.91" x2="189.45" y2="281.91"/><line class="cls-4" x1="183.26" y1="287.81" x2="180.73" y2="287.81"/><line class="cls-4" x1="208.29" y1="287.81" x2="187.48" y2="287.81"/><line class="cls-4" x1="207.86" y1="293.93" x2="199.29" y2="293.93"/><path class="cls-14" d="M262.32,351.33V336.56a1.37,1.37,0,0,0-1.37-1.37H186.54a1,1,0,0,1-1-1h0a1,1,0,0,1,1-1H315.63a1.37,1.37,0,0,1,1.37,1.37V353.4a2.21,2.21,0,0,1-2.21,2.22H186.54a1,1,0,0,1-1-1h0a1,1,0,0,1,1-1h73.57A2.22,2.22,0,0,0,262.32,351.33Z" transform="translate(-53.89 -56.37)"/><path class="cls-12" d="M233.67,263.28s-10.34.34-25.34-3.33-27.33-1-29.66,13.33,36,29,62.66,34.34,53.34,7.66,66.34,2,12.66-26,7.66-35.34S293.67,263.62,285,265,233.67,263.28,233.67,263.28Z" transform="translate(-53.89 -56.37)"/><path class="cls-12" d="M301,200.62q-2.14-14.42-4.29-28.82c-1.33-8.92-1.89-18.47-4.21-27.18-3-13-7.5-20-21-22.5s-28.5,12-28.5,18.5,4.64,21.17-2.5,44.25c-2.44,7.89,7,9,18.41,5.51Z" transform="translate(-53.89 -56.37)"/><path class="cls-14" d="M264.75,180.62s-16.5,2.25-24.25,4.25S230,189.71,227.21,195s-6.94,24.94-10.94,33.19S205,238.62,203.75,247.37s5.75,11.75,11,12.75a94,94,0,0,0,11.75,1.25s8.5,20,25,21.5,28.75-10,36.25-14.25,8-14,8.25-25.25,6.9-36.55,5.15-43.55-4.37-8.15-15.73-14C280.56,183.35,271.75,180.12,264.75,180.62Z" transform="translate(-53.89 -56.37)"/><path class="cls-1" d="M212.88,233.31c-3.81,4.56-8.19,7.45-9.13,14.06a12.39,12.39,0,0,0,0,4c1,1.54,4.16,5.19,10.26,3.45,7.64-2.19,6.82-12.83,2.18-19.38A4.68,4.68,0,0,0,212.88,233.31Z" transform="translate(-53.89 -56.37)"/><path class="cls-1" d="M263.58,214.38c7-3.2,10.78-8.73,14-19.22a99.61,99.61,0,0,0,2.85-11.53c-4.75-1.82-10.66-3.37-15.66-3,0,0-7.12,1-14.21,2.2-.59,3.68-2,14.16-.35,22C252.23,214.38,256.59,217.58,263.58,214.38Z" transform="translate(-53.89 -56.37)"/><path class="cls-4" d="M230.5,250.87s5-12.5,5-16-2.25-7-4-11.5,2.75-12,2.75-12,2.84-21.74,5.46-25.52" transform="translate(-53.89 -56.37)"/><path class="cls-1" d="M206.75,226.37l3.75-4a41,41,0,0,0,7.75,3.25c10.13,3.37,14.75,5.5,15.25,11.5,0,0,6.75-4.25,13.5-3.5s12.75,3.5,14.75,3.75l2,.25.5,3.5-3.75,19.75-29.25-3-20-17.5Z" transform="translate(-53.89 -56.37)"/><polygon class="cls-12" points="151.61 169.24 175.36 189.49 177.86 185.49 211.86 184.74 209.86 206.74 177.61 205.24 175.36 206.74 157.86 193.74 151.61 169.24"/><path class="cls-1" d="M288.25,218.87l-.5,28.5s-14.75,8.25-23,10.5a54.3,54.3,0,0,1-14,2.25c-.75,0-4-5.25-5.75-7s-3.16-1.78-6.36-3.38c-4.46-2.23-6.39-2.62-6.14-1.62s.5,2,2.75,3.25,3.75,2.25,3.75,2.25l.5,1s-5.5-.75-7.75-1.25-8-4.5-8-4.5-2.45-.15-.7,2.85,3.45,3.15,3.45,3.15a9.08,9.08,0,0,0,2.5,4.75,37.67,37.67,0,0,0,3.5,2.75s-4.75-1.25-4.25,0,3.5,1.75,7.25,3.5,12.25,2,17,2.75a119.41,119.41,0,0,0,26,.5c10-1,25-7.75,27.75-10s1-27.5.25-33.25-2.25-16.5-3.25-21.5-5-12-7.5-13.5S288.75,194.12,288.25,218.87Z" transform="translate(-53.89 -56.37)"/><path class="cls-1" d="M226.5,254.87s5.95,3.53,10.41,4.52" transform="translate(-53.89 -56.37)"/><path class="cls-1" d="M232.5,262.37a19.58,19.58,0,0,0,5.89,1.22" transform="translate(-53.89 -56.37)"/><path class="cls-1" d="M227.26,257.41a30.49,30.49,0,0,0,10.39,4.7" transform="translate(-53.89 -56.37)"/><path class="cls-14" d="M281.48,268.68c9.77-1.81,22.28-7.53,24.77-9.56,2.75-2.25,1-27.5.25-33.25s-2.25-16.5-3.25-21.5-5-12-7.5-13.5-7,3.25-7.5,28l-.5,28.5s-5.73,3.2-12.05,6.16C278.14,256.18,282.25,261.78,281.48,268.68Z" transform="translate(-53.89 -56.37)"/><path class="cls-1" d="M255.88,177.65s-2.24,13-2.46,21,5.81,16.09,14.3,5.81,7.15-27.27,7.15-27.27A23.6,23.6,0,0,1,255.88,177.65Z" transform="translate(-53.89 -56.37)"/><path class="cls-4" d="M256.55,183.24s.44,6.93-.23,10.73" transform="translate(-53.89 -56.37)"/><path class="cls-1" d="M206.17,244.71a4.33,4.33,0,0,0,.38,3.43c1,1.65,6.35,4.82,6.35,3.55s-2.67-3-2.8-3.93a7.49,7.49,0,0,0-.88-2.16S207.31,243.19,206.17,244.71Z" transform="translate(-53.89 -56.37)"/><path class="cls-1" d="M203.61,237.3s-.24,3.71.39,5.44,7.32,6.35,9,5.47-3.57-5.47-4.82-6.91A42.8,42.8,0,0,0,203.61,237.3Z" transform="translate(-53.89 -56.37)"/><path class="cls-1" d="M203.63,232.79s-.5,3.68,0,5.45,6.85,6.85,8.63,6.09-3.17-5.71-4.31-7.23A43.43,43.43,0,0,0,203.63,232.79Z" transform="translate(-53.89 -56.37)"/><path class="cls-1" d="M206.68,228.6s-3.81-2-4.44.51,2.28,5.2,4.95,7.36,3.8,1.77,3.8-.26S206.68,228.6,206.68,228.6Z" transform="translate(-53.89 -56.37)"/><path class="cls-1" d="M206.33,308s-5,2.67-14.33,3-17-4.67-12.67-8.67a21.07,21.07,0,0,1,17-5.33c6,1,15,3.33,15,3.33Z" transform="translate(-53.89 -56.37)"/><path class="cls-1" d="M207.67,299.62c.45.05.93.08,1.41.1-3.06-.76-8.61-2.08-12.75-2.77a21.07,21.07,0,0,0-17,5.33c-2.2,2-1.29,4.34,1.36,6.06a6.41,6.41,0,0,1,4-6.72C190.33,299,202,299,207.67,299.62Z" transform="translate(-53.89 -56.37)"/><path class="cls-12" d="M310.67,280.28s-10,15-20,21S235,308,225.67,308H206.33v-7S237,296.62,254,287s26-20.33,39.33-24.67,25,3,24.67,21" transform="translate(-53.89 -56.37)"/><path class="cls-15" d="M304,291.76a56.84,56.84,0,0,1-29.16,14.42" transform="translate(-53.89 -56.37)"/><path class="cls-15" d="M310.5,283.62a25.55,25.55,0,0,1-2.81,4.11" transform="translate(-53.89 -56.37)"/><path class="cls-15" d="M260,285.12a29.3,29.3,0,0,1-16,6" transform="translate(-53.89 -56.37)"/><path class="cls-12" d="M200.43,266.06l-1.1-.11" transform="translate(-53.89 -56.37)"/><path class="cls-1" d="M294.33,309.28a93.5,93.5,0,0,1,15.34-4c7-1,12.66,0,14.66,4.34s.67,9.66-6.33,11-19.67-1.34-21-1.34a9.82,9.82,0,0,1-3.33-1Z" transform="translate(-53.89 -56.37)"/><path class="cls-1" d="M316.26,305c2.13.82,6.15,3.07,5.41,8.26-1,7-9.34,7-15,7a4.65,4.65,0,0,0-1.24.18c4.2.49,9.09.82,12.57.16,7-1.34,8.33-6.67,6.33-11C323,306.76,320.1,305.36,316.26,305Z" transform="translate(-53.89 -56.37)"/><path class="cls-12" d="M196.67,258.62s-11.34-2-18.67,3.66-6.33,11.67.67,20.34,25,24,64,31,51,4.66,51,4.66l.66-9a79.23,79.23,0,0,1-46.66-15c-21.83-16-31.56-26.51-47.24-28.22" transform="translate(-53.89 -56.37)"/><path class="cls-15" d="M196.08,266.19a28.67,28.67,0,0,0-3.58.43" transform="translate(-53.89 -56.37)"/><path class="cls-15" d="M289.5,309.12s-23-.5-49-20.5c-18.38-14.14-29.26-20.28-37.94-22" transform="translate(-53.89 -56.37)"/><path class="cls-1" d="M289.28,163.75c-6.14,3.24-7-3.26-6.95-7.18a.34.34,0,0,0,.13-.17c.44-1.8,0-10.78-5.17-14.38-4.56-3.17-10.6-5.9-16.24-5.91-4,0-7.5,2.53-9.63,5.75-2.53,3.83-2.32,8.27-2.52,12.69s-.63,9.3.25,13.73c1.18,5.9,6.69,18.29,13.38,18.29,6.07,0,16.85-9.08,20.55-14.43a6.51,6.51,0,0,0,2.27-1.31C286.73,169.65,289.48,167.69,289.28,163.75Z" transform="translate(-53.89 -56.37)"/><path class="cls-4" d="M262.53,159.82s-2.75,8.46-2.56,9.44,3.54,0,3.54,0" transform="translate(-53.89 -56.37)"/><path class="cls-4" d="M260,172.8s3.64,2.74,9.44-1.57" transform="translate(-53.89 -56.37)"/><path class="cls-4" d="M268.82,162.77s2,4.13,8.27,1.77" transform="translate(-53.89 -56.37)"/><path class="cls-4" d="M250.92,157.85s1.18,4.13,7.48,2.56" transform="translate(-53.89 -56.37)"/><path class="cls-4" d="M262.07,154.71s-2.23-8-9.57-3.94" transform="translate(-53.89 -56.37)"/><circle class="cls-4" cx="272.17" cy="163.36" r="7.87" transform="matrix(0.38, -0.92, 0.92, 0.38, -36.43, 296.43)"/><circle class="cls-4" cx="200.18" cy="103.44" r="7.87"/><line class="cls-4" x1="225.75" y1="108.56" x2="232.24" y2="107.38"/><line class="cls-4" x1="192.51" y1="101.48" x2="194.87" y2="99.71"/><path class="cls-12" d="M254.15,139.1s7-4.26,9.44-.22,13.65,30.88,25.69,24.87-.09-25.77-11.77-32.06S256,130.79,254.15,139.1Z" transform="translate(-53.89 -56.37)"/><path class="cls-15" d="M261.05,136.11s-3.93-3.31-6.22-1.78a4.51,4.51,0,0,0-2.29,3.43" transform="translate(-53.89 -56.37)"/><path class="cls-15" d="M289.71,156.7a10.83,10.83,0,0,0,2.9,1.29" transform="translate(-53.89 -56.37)"/><path class="cls-15" d="M259.41,127.84s6.87-7.63,14.5,4.2c5,7.76,7.88,15.52,11.64,20.59" transform="translate(-53.89 -56.37)"/><path class="cls-15" d="M270.65,153.61a9,9,0,0,1,10.23,1.57" transform="translate(-53.89 -56.37)"/><path class="cls-4" d="M260.4,230s7.54,9.43,20,9.43" transform="translate(-53.89 -56.37)"/></g></svg>