<svg xmlns="http://www.w3.org/2000/svg" width="255.434" height="262.443" viewBox="0 0 255.434 262.443">
  <g id="music" transform="translate(0 0)">
    <g id="Capa_1" data-name="Capa 1" transform="translate(0 0)">
      <path id="Caminho_807" data-name="Caminho 807" d="M2489.152,889.615l-5.254,4.514-.9-1.046-1.947,1.674.9,1.046,1.448,1.69.9,1.046,1.947-1.674-.9-1.054,5.254-4.506c.668-.579-.121-1.368-.121-1.368A1.094,1.094,0,0,0,2489.152,889.615Z" transform="translate(-2433.695 -852.407)" fill="#b4b4b4"/>
      <path id="Caminho_808" data-name="Caminho 808" d="M2486.092,881.155l-5.254,4.506-.9-1.046-1.947,1.673.9,1.046,1.449,1.69.893,1.046,1.955-1.674-.9-1.054,5.254-4.506c.668-.579-.121-1.368-.121-1.368A1.1,1.1,0,0,0,2486.092,881.155Z" transform="translate(-2433.097 -850.753)" fill="#b4b4b4"/>
      <path id="Caminho_809" data-name="Caminho 809" d="M2482.462,873.185l-5.254,4.514-.9-1.046-1.947,1.674.9,1.046,1.44,1.69.9,1.046,1.955-1.674-.9-1.054,5.246-4.506c.676-.579-.113-1.368-.113-1.368a1.094,1.094,0,0,0-1.327-.322Z" transform="translate(-2432.388 -849.196)" fill="#b4b4b4"/>
      <path id="Caminho_810" data-name="Caminho 810" d="M2480.242,863.485,2474.988,868l-.9-1.054-1.947,1.682.893,1.046,1.448,1.682.9,1.046,1.947-1.674-.893-1.046,5.246-4.514c.676-.579-.113-1.36-.113-1.36A1.094,1.094,0,0,0,2480.242,863.485Z" transform="translate(-2431.954 -847.301)" fill="#b4b4b4"/>
      <path id="Caminho_811" data-name="Caminho 811" d="M2478.349,856.177a1.094,1.094,0,0,0-1.327-.322l-5.254,4.514-.9-1.054-1.948,1.674.9,1.054,1.44,1.682.942,1.078,1.955-1.673-.9-1.046,5.254-4.514C2479.138,856.957,2478.349,856.177,2478.349,856.177Z" transform="translate(-2431.324 -845.809)" fill="#b4b4b4"/>
      <path id="Caminho_812" data-name="Caminho 812" d="M2606.99,1008.585c.531.048,1.078.1,1.609.145,7.048.467,20.549,1.126,21.724-7.241.563-4.023-4.087-7.579-2.333-11.57.652-1.472,2.06-2.953,3.75-1.842.072.048,14.78,9.7,13.951,24.6-2.116,10.09,3.283,15.054,11.57,17.234.8.209,1.609.394,2.414.571,6.719,1.416,16.382,3.983,21.659,8.118,25.079,19.64,22.947,50.431-1.48,68.389-36.609,31.54-60.392.716-60.392.716-12.978-12.6-10.733-33.422-10.733-33.422-.99-12.021-14.04-16.349-14.04-16.349-14.989-4.023-21.885-17.114-21.885-17.114s-5.2-7.724-7.861-21.724c0,0-1.609-6.067,1.955-7.78,0,0,4.023-2.808,6.01,3.653,0,0,2.414,12.873,13.943,10.371a19.681,19.681,0,0,0,7.716-4.578l13.211-11.345Z" transform="translate(-2450.018 -863.248)" fill="#e63323"/>
      <path id="Caminho_813" data-name="Caminho 813" d="M2678.557,1102.528c-7.3,4.956-15.424,9.776-24.524,9.824-8.85,0-17.2-4.691-22.987-11.176-6.3-7.064-9.14-15.287-13.042-23.663-4.192-9.051-10.049-16.6-18.7-21.788s-17.531-9.293-23.631-17.572c-4.4-5.978-8.906-13.992-7.587-21.724a4.143,4.143,0,0,0-1.231.515c-3.564,1.714-1.955,7.78-1.955,7.78,2.663,13.976,7.861,21.724,7.861,21.724s6.9,13.05,21.885,17.114c0,0,13.082,4.345,14.072,16.373,0,0-2.245,20.823,10.733,33.422,0,0,23.784,30.824,60.392-.716,13.042-9.574,19.728-22.818,19.31-36.069A55.691,55.691,0,0,1,2678.557,1102.528Z" transform="translate(-2450.01 -868.865)" fill="#ead8cd"/>
      <path id="Caminho_814" data-name="Caminho 814" d="M2606.83,1018.78" transform="translate(-2458.274 -873.034)" fill="#b6783c"/>
      <path id="Caminho_815" data-name="Caminho 815" d="M2610.05,1020.377c7.306-5.479,17.7-.274,25.393-4.868a11.181,11.181,0,0,0,4.144-4.3,8.849,8.849,0,0,0,.427-5.7c.965-1.3,1.609-.378,2.655.8a13.027,13.027,0,0,1,2.566,5.415c.8,3.017.6,6.268.668,9.39.113,4.932,1.754,9.406,5.633,12.455,4.908,3.846,19.085,4.932,19.889,7.451,1.319,3.524-6.871,9.494-10.2,10.13-15.8,3.025-21.587,15.287-27.244,21.724-2.872,3.267-6.967.917-9.606-1.834-4.5-4.675-9.526-14.152-13.316-19.39a20.53,20.53,0,0,0-7.764-6.791s-4.281-2.084-8.376-4.667c0,0-4.828-5.053-.684-6.26C2605.432,1030.676,2605.786,1023.6,2610.05,1020.377Z" transform="translate(-2455.484 -869.077)" fill="#e2e1e1"/>
      <path id="Caminho_816" data-name="Caminho 816" d="M2650.267,1059.122a30.574,30.574,0,0,0-10.749,6.308c-1.883,1.69-4.739,4.249-4.715,6.276.049,5.745-7,6.437-10.331,3.387-3.693-3.4-5.463-8.971-7.764-13.348a31.7,31.7,0,0,0-8.046-10.122c-2.752-2.092-6.1-3.017-8.85-5.085a8.3,8.3,0,0,1-3.532-6.388c-.635.233-1.3.459-2.019.668-4.16,1.207.684,6.26.684,6.26,4.1,2.583,8.376,4.667,8.376,4.667a20.524,20.524,0,0,1,7.764,6.791c3.79,5.238,8.85,14.716,13.316,19.391,2.639,2.752,6.734,5.1,9.607,1.834,5.632-6.437,11.441-18.674,27.243-21.724,3.331-.636,11.521-6.605,10.2-10.13a1.814,1.814,0,0,0-.885-.885C2665.24,1052.83,2657.871,1056.419,2650.267,1059.122Z" transform="translate(-2455.489 -875.64)" fill="#d6d6d6"/>
      <path id="Caminho_817" data-name="Caminho 817" d="M293.63,206.634,212.52,115.29l-10.17,8.73,78.069,93.959Z" transform="translate(-135.902 -66.235)" fill="#fcc772"/>
      <path id="Caminho_818" data-name="Caminho 818" d="M2593.819,991.978c-3.548,2.913-7.45,4.763-12.069,3.693-3.918-.9-6.992-4.16-9.7-6.927-8.328-8.561-15.086-18.409-22.689-27.6-7.733-9.349-15.424-18.674-22.666-28.41-3.451-4.642-6.992-9.277-11.409-13.05-3.669-3.13-6.292-6.163-7.8-10.516l-2.687,2.3,78.045,93.959,13.211-11.345-2.043-2.293A2.177,2.177,0,0,1,2593.819,991.978Z" transform="translate(-2438.336 -853.451)" fill="#fbcba4"/>
      <path id="Caminho_819" data-name="Caminho 819" d="M2606.578,1016.917a.99.99,0,1,1-1.391-.1.99.99,0,0,1,1.391.1Z" transform="translate(-2457.885 -872.626)" fill="#fff"/>
      <path id="Caminho_820" data-name="Caminho 820" d="M2599.127,1008.326a.99.99,0,1,1-.678-.343A.989.989,0,0,1,2599.127,1008.326Z" transform="translate(-2456.429 -871.175)" fill="#fff"/>
      <path id="Caminho_821" data-name="Caminho 821" d="M2592.277,1000.347a.99.99,0,1,1-1.4-.1.99.99,0,0,1,1.4.1Z" transform="translate(-2455.09 -869.829)" fill="#fff"/>
      <path id="Caminho_822" data-name="Caminho 822" d="M2585.376,992.295a.989.989,0,1,1-.677-.348A.989.989,0,0,1,2585.376,992.295Z" transform="translate(-2453.741 -868.468)" fill="#fff"/>
      <path id="Caminho_823" data-name="Caminho 823" d="M2579.227,985.156a.99.99,0,1,1-.678-.343A.99.99,0,0,1,2579.227,985.156Z" transform="translate(-2452.54 -867.264)" fill="#fff"/>
      <path id="Caminho_824" data-name="Caminho 824" d="M2559.428,962.107a.99.99,0,1,1-1.393-.1A.991.991,0,0,1,2559.428,962.107Z" transform="translate(-2448.671 -863.374)" fill="#fff"/>
      <path id="Caminho_825" data-name="Caminho 825" d="M2552.577,954.147a.989.989,0,1,1-1.391-.1.99.99,0,0,1,1.391.1Z" transform="translate(-2447.333 -862.031)" fill="#fff"/>
      <path id="Caminho_826" data-name="Caminho 826" d="M2545.338,945.707a.99.99,0,1,1-1.392-.1A.989.989,0,0,1,2545.338,945.707Z" transform="translate(-2445.918 -860.606)" fill="#fff"/>
      <path id="Caminho_827" data-name="Caminho 827" d="M2538.848,938.155a.99.99,0,1,1-1.392-.1.974.974,0,0,1,1.392.1Z" transform="translate(-2444.65 -859.33)" fill="#fff"/>
      <path id="Caminho_828" data-name="Caminho 828" d="M2526.318,923.566a.982.982,0,1,1-.674-.343A.991.991,0,0,1,2526.318,923.566Z" transform="translate(-2442.201 -856.868)" fill="#fff"/>
      <path id="Caminho_829" data-name="Caminho 829" d="M2519.028,915.077a.989.989,0,1,1-1.392-.1A.989.989,0,0,1,2519.028,915.077Z" transform="translate(-2440.777 -855.436)" fill="#fff"/>
      <path id="Caminho_830" data-name="Caminho 830" d="M2562.457,972.637a.99.99,0,1,1-1.4-.1A.989.989,0,0,1,2562.457,972.637Z" transform="translate(-2449.263 -865.151)" fill="#fff"/>
      <path id="Caminho_831" data-name="Caminho 831" d="M2569.837,966.295a.982.982,0,1,1-.672-.347A.99.99,0,0,1,2569.837,966.295Z" transform="translate(-2450.705 -864.08)" fill="#fff"/>
      <path id="Caminho_832" data-name="Caminho 832" d="M2654.47,1032.753l-2.18,1.883,7.072,14.04,2.229,1.609,8.5,15.335.266-.233,2.148,2.494-9.574-18.505.507-.652-7.136-15.891C2655.7,1031.522,2654.47,1032.753,2654.47,1032.753Z" transform="translate(-2467.158 -874.493)" fill="#979696"/>
      <path id="Caminho_833" data-name="Caminho 833" d="M2477.521,849.41c-4.924,1.891-3.073,7.322-3.073,7.322l.25.724,3.339-2.864a1.094,1.094,0,0,1,1.328.322s.8.8.121,1.36l-4.023,3.452,1.424,4.208,3.733-3.218a1.094,1.094,0,0,1,1.327.322s.8.8.113,1.36l-4.4,3.782,1.69,4.972,3.058-2.631a1.094,1.094,0,0,1,1.327.322s.8.8.113,1.368l-3.733,3.218,1.609,4.642,3.637-3.122a1.1,1.1,0,0,1,1.328.314s.8.8.121,1.368l-4.313,3.7,1.609,4.651,3.75-3.218a1.094,1.094,0,0,1,1.327.322s.8.8.121,1.368l-4.433,3.8,1.609,4.643c3.926-1.971,7.129,1.834,7.129,1.834l5.229,6.091,10.21-8.77c-5.906-6.646-3.105-11.658-3.105-11.658-13.131-9.567-20.469-26.423-20.469-26.423C2483.8,848.251,2477.521,849.41,2477.521,849.41Z" transform="translate(-2432.338 -844.545)" fill="#979696"/>
      <path id="Caminho_834" data-name="Caminho 834" d="M2480.521,872.588c-.234-1.143.676-2.3,1.239-3.218.668-1.046-.587-.66-1.375-1.07l-1.835,1.609,1.69,4.972.885-.8A4.021,4.021,0,0,1,2480.521,872.588Z" transform="translate(-2433.206 -848.261)" fill="#d6d6d6"/>
      <path id="Caminho_835" data-name="Caminho 835" d="M2479.035,863.608c.089-.29.8-1.609,1.07-1.609a7.108,7.108,0,0,1-2.325-.29,2.363,2.363,0,0,1-.925-.539l-1.054.909,1.424,4.208,1.609-1.384A4.038,4.038,0,0,1,2479.035,863.608Z" transform="translate(-2432.669 -846.868)" fill="#d6d6d6"/>
      <path id="Caminho_836" data-name="Caminho 836" d="M2475.236,855.992a8.319,8.319,0,0,1,1.866-6.332c-4.4,2.028-2.655,7.145-2.655,7.145l.25.724.74-.636a8.355,8.355,0,0,1-.2-.9Z" transform="translate(-2432.338 -844.619)" fill="#d6d6d6"/>
      <path id="Caminho_837" data-name="Caminho 837" d="M2507.573,902.266c-2.88,2.189-7.684,2.47-10.2-.37-1.046-1.183-1.891-2.615-3.017-3.709s-2.542-1.682-3.726-2.728a4.138,4.138,0,0,1-1-1.36l-2.221,1.9,1.609,4.642c3.926-1.971,7.128,1.835,7.128,1.835l5.23,6.091,10.21-8.77c-.218-.241-.418-.483-.612-.716a23.5,23.5,0,0,1-3.4,3.186Z" transform="translate(-2434.938 -851.883)" fill="#d6d6d6"/>
      <path id="Caminho_838" data-name="Caminho 838" d="M2487.686,885.607c-.185-.185-.37-.362-.546-.547l-2.64,2.261,1.609,4.651,2.455-2.116C2488.507,888.367,2488.869,886.806,2487.686,885.607Z" transform="translate(-2434.369 -851.537)" fill="#d6d6d6"/>
      <path id="Caminho_839" data-name="Caminho 839" d="M2484.911,877.781c-.483-.241-.933-.434-1.335-.612l-2,1.706,1.609,4.642,2.333-2C2485.249,880.1,2485.136,877.878,2484.911,877.781Z" transform="translate(-2433.799 -849.995)" fill="#d6d6d6"/>
      <rect id="Retângulo_43" data-name="Retângulo 43" width="24.95" height="13.002" rx="1.98" transform="translate(153.298 170.677) rotate(-40.66)" fill="#bebebe"/>
      <path id="Caminho_840" data-name="Caminho 840" d="M2622.933,1051.865a1.609,1.609,0,0,1-2.245-.169l-5.817-6.767-.805.692a1.609,1.609,0,0,0-.169,2.253l6.4,7.443a1.609,1.609,0,0,0,2.245.169l16.51-14.177a1.609,1.609,0,0,0,.169-2.253l-.579-.676Z" transform="translate(-2459.581 -875.966)" fill="#d6d6d6"/>
      <path id="Caminho_841" data-name="Caminho 841" d="M2622.788,1050.135a1.158,1.158,0,1,1-1.609-.121,1.158,1.158,0,0,1,1.609.121Z" transform="translate(-2460.997 -878.217)" fill="#555454"/>
      <path id="Caminho_842" data-name="Caminho 842" d="M2627.808,1045.825a1.158,1.158,0,1,1-1.609-.121A1.158,1.158,0,0,1,2627.808,1045.825Z" transform="translate(-2461.978 -877.49)" fill="#555454"/>
      <path id="Caminho_843" data-name="Caminho 843" d="M2632.82,1041.515a1.151,1.151,0,1,1-1.609-.121A1.15,1.15,0,0,1,2632.82,1041.515Z" transform="translate(-2462.959 -876.762)" fill="#555454"/>
      <path id="Caminho_844" data-name="Caminho 844" d="M2637.839,1037.2a1.151,1.151,0,1,1-1.609-.129,1.15,1.15,0,0,1,1.609.129Z" transform="translate(-2463.939 -876.034)" fill="#555454"/>
      <rect id="Retângulo_44" data-name="Retângulo 44" width="24.95" height="13.002" rx="1.98" transform="translate(168.097 191.229) rotate(-40.539)" fill="#bebebe"/>
      <path id="Caminho_845" data-name="Caminho 845" d="M2639.283,1070.9a1.61,1.61,0,0,1-2.245-.169l-5.817-6.766-.8.692a1.61,1.61,0,0,0-.169,2.253l6.437,7.442a1.609,1.609,0,0,0,2.245.169l16.51-14.177a1.61,1.61,0,0,0,.169-2.253l-.579-.676Z" transform="translate(-2462.776 -879.145)" fill="#d6d6d6"/>
      <path id="Caminho_846" data-name="Caminho 846" d="M2639.138,1069.165a1.159,1.159,0,1,1-1.609-.121A1.159,1.159,0,0,1,2639.138,1069.165Z" transform="translate(-2464.192 -881.428)" fill="#555454"/>
      <path id="Caminho_847" data-name="Caminho 847" d="M2644.15,1064.9a1.151,1.151,0,1,1-1.609-.12,1.151,1.151,0,0,1,1.609.12Z" transform="translate(-2465.173 -880.709)" fill="#555454"/>
      <path id="Caminho_848" data-name="Caminho 848" d="M2649.17,1060.545a1.151,1.151,0,1,1-1.609-.121,1.151,1.151,0,0,1,1.609.121Z" transform="translate(-2466.155 -879.973)" fill="#555454"/>
      <path id="Caminho_849" data-name="Caminho 849" d="M2654.19,1056.234a1.151,1.151,0,1,1-1.609-.121,1.151,1.151,0,0,1,1.609.121Z" transform="translate(-2467.135 -879.246)" fill="#555454"/>
      <rect id="Retângulo_45" data-name="Retângulo 45" width="24.95" height="13.002" rx="1.98" transform="translate(184.341 208.134) rotate(-40.66)" fill="#bebebe"/>
      <path id="Caminho_850" data-name="Caminho 850" d="M2661.523,1096.795a1.609,1.609,0,0,1-2.253-.177l-5.809-6.767-.8.692a1.61,1.61,0,0,0-.169,2.253l6.4,7.442a1.609,1.609,0,0,0,2.245.169l16.51-14.177a1.609,1.609,0,0,0,.169-2.253l-.579-.668Z" transform="translate(-2467.122 -883.471)" fill="#d6d6d6"/>
      <path id="Caminho_851" data-name="Caminho 851" d="M2661.389,1095.067a1.159,1.159,0,1,1-1.576-.062,1.16,1.16,0,0,1,1.576.063Z" transform="translate(-2468.549 -885.808)" fill="#555454"/>
      <path id="Caminho_852" data-name="Caminho 852" d="M2666.39,1090.744a1.15,1.15,0,1,1-1.609-.121A1.151,1.151,0,0,1,2666.39,1090.744Z" transform="translate(-2469.519 -885.07)" fill="#555454"/>
      <path id="Caminho_853" data-name="Caminho 853" d="M2671.41,1086.434a1.151,1.151,0,1,1-1.609-.121,1.151,1.151,0,0,1,1.609.121Z" transform="translate(-2470.5 -884.343)" fill="#555454"/>
      <path id="Caminho_854" data-name="Caminho 854" d="M2676.43,1082.125a1.15,1.15,0,1,1-1.609-.121,1.151,1.151,0,0,1,1.609.121Z" transform="translate(-2471.481 -883.615)" fill="#555454"/>
      <line id="Linha_45" data-name="Linha 45" y1="8.81" x2="10.25" transform="translate(70.028 52.334)" fill="#b6783c"/>
      <line id="Linha_46" data-name="Linha 46" y1="8.81" x2="10.25" transform="translate(75.355 58.799)" fill="#b6783c"/>
      <line id="Linha_47" data-name="Linha 47" y1="8.81" x2="10.258" transform="translate(80.673 65.263)" fill="#b6783c"/>
      <line id="Linha_48" data-name="Linha 48" y1="8.818" x2="10.25" transform="translate(86.007 71.727)" fill="#b6783c"/>
      <line id="Linha_49" data-name="Linha 49" y1="8.818" x2="10.258" transform="translate(91.326 78.191)" fill="#b6783c"/>
      <line id="Linha_50" data-name="Linha 50" y1="8.818" x2="10.258" transform="translate(96.652 84.656)" fill="#b6783c"/>
      <line id="Linha_51" data-name="Linha 51" y1="9.904" x2="11.53" transform="translate(101.471 90.459)" fill="#b6783c"/>
      <line id="Linha_52" data-name="Linha 52" y1="9.583" x2="11.152" transform="translate(107.305 96.804)" fill="#b6783c"/>
      <line id="Linha_53" data-name="Linha 53" y1="10.258" x2="11.94" transform="translate(111.971 103.17)" fill="#b6783c"/>
      <line id="Linha_54" data-name="Linha 54" y1="10.435" x2="12.149" transform="translate(117.217 109.522)" fill="#b6783c"/>
      <line id="Linha_55" data-name="Linha 55" y1="10.604" x2="12.35" transform="translate(122.471 115.882)" fill="#b6783c"/>
      <line id="Linha_56" data-name="Linha 56" y1="10.781" x2="12.543" transform="translate(127.725 122.234)" fill="#b6783c"/>
      <line id="Linha_57" data-name="Linha 57" y1="11.039" x2="12.857" transform="translate(132.866 128.597)" fill="#b6783c"/>
      <line id="Linha_58" data-name="Linha 58" y1="11.135" x2="12.962" transform="translate(138.217 134.948)" fill="#b6783c"/>
      <path id="Caminho_855" data-name="Caminho 855" d="M2703.414,1032.662c-5.278-4.136-14.933-6.7-21.659-8.118-.8-.177-1.609-.362-2.414-.571-8.287-2.18-13.678-7.145-11.569-17.234.8-14.9-14.531-21.474-14.611-21.506-3.025-1.328-6.8.088-7.442,1.553-.1.225-.186.419-.257.6a1.931,1.931,0,0,1,2.083.145c.073.048,14.78,9.7,13.952,24.6-2.116,10.089,3.283,15.054,11.57,17.234.8.209,1.609.394,2.414.571,6.719,1.416,16.381,3.983,21.66,8.118,22.681,17.757,23.107,44.646,4.908,62.886C2726.353,1083,2728.453,1052.269,2703.414,1032.662Z" transform="translate(-2465.824 -862.665)" fill="#b20f0c"/>
      <line id="Linha_59" data-name="Linha 59" x2="126.617" y2="155.752" transform="translate(68.387 53.324)" fill="none" stroke="#080600" stroke-linecap="round" stroke-miterlimit="10" stroke-width="1"/>
      <line id="Linha_60" data-name="Linha 60" x2="126.617" y2="147.408" transform="translate(70.213 55.803)" fill="none" stroke="#080600" stroke-linecap="round" stroke-miterlimit="10" stroke-width="1"/>
      <line id="Linha_61" data-name="Linha 61" x2="126.617" y2="147.408" transform="translate(72.048 54.102)" fill="none" stroke="#080600" stroke-linecap="round" stroke-miterlimit="10" stroke-width="1"/>
      <line id="Linha_62" data-name="Linha 62" x2="126.617" y2="147.408" transform="translate(73.874 52.411)" fill="none" stroke="#080600" stroke-linecap="round" stroke-miterlimit="10" stroke-width="1"/>
      <path id="Caminho_856" data-name="Caminho 856" d="M2657.459,884.37l5.528,4.168.8-1.1,2.052,1.545-.8,1.1-1.336,1.778-.8,1.1-2.052-1.553.8-1.1-5.528-4.168c-.708-.531,0-1.368,0-1.368A1.1,1.1,0,0,1,2657.459,884.37Z" transform="translate(-2467.846 -851.385)" fill="#b4b4b4"/>
      <path id="Caminho_857" data-name="Caminho 857" d="M2659.977,875.72l5.528,4.168.8-1.1,2.052,1.553-.8,1.1-1.336,1.77-.8,1.1-2.06-1.545.8-1.1-5.527-4.168c-.708-.539,0-1.368,0-1.368a1.11,1.11,0,0,1,1.344-.41Z" transform="translate(-2468.336 -849.695)" fill="#b4b4b4"/>
      <path id="Caminho_858" data-name="Caminho 858" d="M2663.1,867.549l5.528,4.168.8-1.1,2.052,1.545-.8,1.1-1.336,1.77-.8,1.1-2.06-1.545.8-1.1-5.528-4.168c-.708-.531,0-1.368,0-1.368a1.111,1.111,0,0,1,1.344-.4Z" transform="translate(-2468.946 -848.098)" fill="#b4b4b4"/>
      <path id="Caminho_859" data-name="Caminho 859" d="M2664.7,857.719l5.528,4.168.8-1.1,2.052,1.545-.8,1.1-1.335,1.778-.8,1.1-2.06-1.553.8-1.1-5.528-4.168c-.708-.531,0-1.368,0-1.368A1.11,1.11,0,0,1,2664.7,857.719Z" transform="translate(-2469.259 -846.177)" fill="#b4b4b4"/>
      <path id="Caminho_860" data-name="Caminho 860" d="M2666.117,850.3a1.1,1.1,0,0,1,1.3-.4l5.527,4.168.8-1.1,2.052,1.545-.8,1.1-1.336,1.778-.8,1.1-2.052-1.553.8-1.1-5.528-4.168C2665.378,851.141,2666.117,850.3,2666.117,850.3Z" transform="translate(-2469.794 -844.652)" fill="#b4b4b4"/>
      <path id="Caminho_861" data-name="Caminho 861" d="M2518.452,1011.484c-.523.08-1.062.169-1.609.241-7.008.917-20.436,2.414-22.126-5.809-.8-3.967,3.6-7.829,1.609-11.7-.74-1.424-2.237-2.816-3.862-1.609-.064.056-14.129,10.629-12.351,25.449,2.751,9.928-2.325,15.223-10.459,17.934-.8.25-1.553.491-2.358.716-6.622,1.843-16.092,5.021-21.1,9.478-23.775,21.193-19.7,51.791,5.825,68.132,38.54,29.158,60.344-3.122,60.344-3.122,12.149-13.4,8.585-34.042,8.585-34.042.217-12.069,12.994-17.234,12.994-17.234,14.708-5,20.758-18.505,20.758-18.505s4.7-8.046,6.437-22.158c0,0,1.231-6.155-2.414-7.636,0,0-4.232-2.542-5.76,4.023,0,0-1.609,12.97-13.268,11.264a19.836,19.836,0,0,1-7.99-4.079l-13.9-10.46Z" transform="translate(-2423.803 -864.12)" fill="#e63323"/>
      <path id="Caminho_862" data-name="Caminho 862" d="M2452.6,1108.807c7.6,4.481,16.011,8.786,25.1,8.247,8.85-.523,16.9-5.769,22.223-12.616,5.841-7.442,8.158-15.8,11.514-24.435,3.612-9.3,8.979-17.2,17.274-22.939s16.9-10.387,22.464-19.036c4.023-6.244,8.006-14.531,6.2-22.158a3.92,3.92,0,0,1,1.263.435c3.669,1.48,2.414,7.635,2.414,7.635-1.762,14.12-6.437,22.158-6.437,22.158s-6.051,13.461-20.759,18.505c0,0-12.776,5.173-12.994,17.234,0,0,3.564,20.646-8.585,34.042,0,0-21.78,32.28-60.344,3.122-13.622-8.721-21.136-21.514-21.563-34.766A55.562,55.562,0,0,0,2452.6,1108.807Z" transform="translate(-2423.791 -868.755)" fill="#ead8cd"/>
      <path id="Caminho_863" data-name="Caminho 863" d="M2550.59,1020.62" transform="translate(-2447.284 -873.345)" fill="#b6783c"/>
      <path id="Caminho_864" data-name="Caminho 864" d="M2528.9,1023.174c-7.636-5-17.7.853-25.65-3.218a11.125,11.125,0,0,1-4.409-4.023,8.85,8.85,0,0,1-.805-5.632c-1.054-1.231-1.609-.281-2.606.982a13.021,13.021,0,0,0-2.213,5.56c-.6,3.065-.193,6.292-.064,9.414.2,4.932-1.159,9.5-4.827,12.793-4.651,4.152-18.739,6.131-19.375,8.7-1.095,3.6,7.458,9.043,10.821,9.47,15.963,2.011,22.529,13.839,28.571,19.913,3.073,3.081,7.008.475,9.47-2.414,4.192-4.956,8.609-14.724,12.069-20.195a20.428,20.428,0,0,1,7.313-7.241s4.143-2.349,8.046-5.189c0,0,4.505-5.351.29-6.292C2534.142,1033.159,2533.386,1026.119,2528.9,1023.174Z" transform="translate(-2431.311 -869.873)" fill="#e2e1e1"/>
      <path id="Caminho_865" data-name="Caminho 865" d="M2490.793,1063.705a30.482,30.482,0,0,1,11.127,5.632c1.987,1.609,5,3.943,5.109,5.97.314,5.737,7.386,5.994,10.516,2.72,3.468-3.629,4.884-9.3,6.9-13.815a31.569,31.569,0,0,1,7.41-10.612c2.623-2.261,5.9-3.4,8.5-5.632a8.28,8.28,0,0,0,3.114-6.6c.651.193,1.336.378,2.068.539,4.215.941-.29,6.292-.29,6.292-3.926,2.84-8.046,5.19-8.046,5.19a20.444,20.444,0,0,0-7.314,7.241c-3.443,5.471-7.861,15.239-12.068,20.2-2.462,2.913-6.4,5.519-9.47,2.414-6.05-6.075-12.607-17.9-28.571-19.913-3.363-.426-11.916-5.874-10.821-9.47a1.853,1.853,0,0,1,.8-.941C2475.45,1058.379,2483.029,1061.484,2490.793,1063.705Z" transform="translate(-2431.313 -875.778)" fill="#d6d6d6"/>
      <path id="Caminho_866" data-name="Caminho 866" d="M236.54,208l75.132-96.325,10.7,8.07-71.938,98.73Z" transform="translate(-142.583 -65.622)" fill="#fcc772"/>
      <path id="Caminho_867" data-name="Caminho 867" d="M2541.076,993.1c3.725,2.679,7.732,4.28,12.294,2.921,3.854-1.151,6.718-4.594,9.229-7.531,7.772-9.076,13.887-19.31,20.919-28.965,7.121-9.816,14.2-19.616,20.815-29.77,3.146-4.827,6.389-9.711,10.556-13.758,3.459-3.355,5.881-6.549,7.121-10.983l2.824,2.124-71.937,98.73L2539,995.4l1.883-2.414Z" transform="translate(-2445.02 -852.736)" fill="#fbcba4"/>
      <path id="Caminho_868" data-name="Caminho 868" d="M2550.3,1018.795a.99.99,0,1,0,1.392-.193.99.99,0,0,0-1.392.193Z" transform="translate(-2447.189 -872.934)" fill="#fff"/>
      <path id="Caminho_869" data-name="Caminho 869" d="M2557.152,1009.7a.99.99,0,1,0,1.384-.2,1,1,0,0,0-1.384.2Z" transform="translate(-2448.528 -871.399)" fill="#fff"/>
      <path id="Caminho_870" data-name="Caminho 870" d="M2563.482,1001.314a.989.989,0,1,0,.655-.386.989.989,0,0,0-.655.386Z" transform="translate(-2449.764 -869.983)" fill="#fff"/>
      <path id="Caminho_871" data-name="Caminho 871" d="M2569.861,992.836a.99.99,0,1,0,1.384-.193A.99.99,0,0,0,2569.861,992.836Z" transform="translate(-2451.011 -868.553)" fill="#fff"/>
      <path id="Caminho_872" data-name="Caminho 872" d="M2575.542,985.324a.99.99,0,1,0,.656-.386.99.99,0,0,0-.656.386Z" transform="translate(-2452.121 -867.284)" fill="#fff"/>
      <path id="Caminho_873" data-name="Caminho 873" d="M2593.832,961.065a.99.99,0,1,0,1.385-.188A1,1,0,0,0,2593.832,961.065Z" transform="translate(-2455.696 -863.19)" fill="#fff"/>
      <path id="Caminho_874" data-name="Caminho 874" d="M2600.152,952.684a.99.99,0,1,0,.656-.386A.99.99,0,0,0,2600.152,952.684Z" transform="translate(-2456.931 -861.775)" fill="#fff"/>
      <path id="Caminho_875" data-name="Caminho 875" d="M2606.852,943.8a1,1,0,1,0,1.408-.2.981.981,0,0,0-1.408.2Z" transform="translate(-2458.24 -860.272)" fill="#fff"/>
      <path id="Caminho_876" data-name="Caminho 876" d="M2612.843,935.9a.99.99,0,1,0,.654-.391.99.99,0,0,0-.654.391Z" transform="translate(-2459.411 -858.941)" fill="#fff"/>
      <path id="Caminho_877" data-name="Caminho 877" d="M2624.422,920.494a.99.99,0,1,0,.656-.386A.99.99,0,0,0,2624.422,920.494Z" transform="translate(-2461.673 -856.341)" fill="#fff"/>
      <path id="Caminho_878" data-name="Caminho 878" d="M2631.161,911.565a.99.99,0,1,0,1.384-.193.99.99,0,0,0-1.384.193Z" transform="translate(-2462.99 -854.835)" fill="#fff"/>
      <path id="Caminho_879" data-name="Caminho 879" d="M2591.482,971.765a.989.989,0,1,0,1.392-.193A.99.99,0,0,0,2591.482,971.765Z" transform="translate(-2455.236 -864.996)" fill="#fff"/>
      <path id="Caminho_880" data-name="Caminho 880" d="M2583.712,965.9a.99.99,0,1,0,1.384-.2A.99.99,0,0,0,2583.712,965.9Z" transform="translate(-2453.718 -864.006)" fill="#fff"/>
      <path id="Caminho_881" data-name="Caminho 881" d="M2499.61,1037.638l2.3,1.738-6.171,14.483-2.116,1.746-7.523,15.842-.282-.209-1.979,2.623,8.375-19.109-.547-.62,6.115-16.317C2498.282,1036.5,2499.61,1037.638,2499.61,1037.638Z" transform="translate(-2434.24 -875.28)" fill="#979696"/>
      <path id="Caminho_882" data-name="Caminho 882" d="M2661.078,843.439c5.037,1.609,3.532,7.113,3.532,7.113l-.2.74-3.516-2.647a1.1,1.1,0,0,0-1.3.4s-.741.8,0,1.368l4.224,3.218-1.158,4.3-3.919-2.961a1.11,1.11,0,0,0-1.311.4s-.732.8,0,1.368l4.634,3.5-1.368,5.061-3.219-2.414a1.11,1.11,0,0,0-1.311.4s-.732.8,0,1.368l3.927,2.961-1.28,4.731-3.822-2.888a1.11,1.11,0,0,0-1.311.41s-.732.8,0,1.368l4.538,3.419-1.279,4.739-3.951-2.977a1.1,1.1,0,0,0-1.3.4s-.741.8,0,1.368l4.53,3.508-1.272,4.731c-4.023-1.714-7,2.285-7,2.285l-4.828,6.437-10.741-8.1c5.471-7.008,2.357-11.827,2.357-11.827,12.5-10.387,18.747-27.67,18.747-27.67C2654.746,842.667,2661.078,843.439,2661.078,843.439Z" transform="translate(-2463.266 -843.395)" fill="#979696"/>
      <path id="Caminho_883" data-name="Caminho 883" d="M2666.6,866.728c.153-1.159-.8-2.253-1.448-3.1-.724-1.006.547-.7,1.311-1.151l1.931,1.456L2667.022,869l-.941-.7A3.894,3.894,0,0,0,2666.6,866.728Z" transform="translate(-2469.628 -847.124)" fill="#d6d6d6"/>
      <path id="Caminho_884" data-name="Caminho 884" d="M2667.235,857.639c-.1-.29-.869-1.609-1.175-1.609a6.75,6.75,0,0,0,2.3-.434,2.294,2.294,0,0,0,.869-.6l1.11.8-1.159,4.3-1.7-1.279a3.873,3.873,0,0,0-.25-1.183Z" transform="translate(-2469.849 -845.662)" fill="#d6d6d6"/>
      <path id="Caminho_885" data-name="Caminho 885" d="M2670.849,849.835a8.288,8.288,0,0,0-2.269-6.2c4.522,1.746,3.106,6.96,3.106,6.96l-.2.74-.8-.579A8.313,8.313,0,0,0,2670.849,849.835Z" transform="translate(-2470.341 -843.443)" fill="#d6d6d6"/>
      <path id="Caminho_886" data-name="Caminho 886" d="M2636.49,898.071c3.009,2,7.821,1.971,10.154-1.03.974-1.239,1.722-2.719,2.768-3.886s2.413-1.842,3.556-2.961a4.072,4.072,0,0,0,.9-1.424l2.342,1.794-1.272,4.731c-4.023-1.714-7,2.285-7,2.285l-4.828,6.437-10.741-8.1c.2-.249.386-.507.563-.756A23.786,23.786,0,0,0,2636.49,898.071Z" transform="translate(-2463.266 -852.262)" fill="#d6d6d6"/>
      <path id="Caminho_887" data-name="Caminho 887" d="M2660.092,880.187l.515-.587,2.776,2.092-1.279,4.739-2.591-1.955C2659.448,882.987,2658.982,881.451,2660.092,880.187Z" transform="translate(-2468.539 -850.47)" fill="#d6d6d6"/>
      <path id="Caminho_888" data-name="Caminho 888" d="M2662.417,872.182c.475-.274.909-.491,1.3-.692l2.092,1.609-1.279,4.731-2.454-1.851A29.9,29.9,0,0,1,2662.417,872.182Z" transform="translate(-2469.071 -848.885)" fill="#d6d6d6"/>
      <rect id="Retângulo_46" data-name="Retângulo 46" width="13.002" height="24.95" rx="1.98" transform="matrix(0.602, -0.798, 0.798, 0.602, 72.438, 167.896)" fill="#bebebe"/>
      <path id="Caminho_889" data-name="Caminho 889" d="M2530.321,1055.053a1.609,1.609,0,0,0,2.237-.314l5.374-7.128.8.643a1.61,1.61,0,0,1,.314,2.237l-5.906,7.828a1.609,1.609,0,0,1-2.229.314l-17.379-13.1a1.609,1.609,0,0,1-.314-2.237l.539-.708Z" transform="translate(-2439.92 -876.696)" fill="#d6d6d6"/>
      <path id="Caminho_890" data-name="Caminho 890" d="M2536.122,1052.94a1.159,1.159,0,1,0,1.609-.225A1.159,1.159,0,0,0,2536.122,1052.94Z" transform="translate(-2444.41 -878.68)" fill="#555454"/>
      <path id="Caminho_891" data-name="Caminho 891" d="M2530.844,1048.96a1.15,1.15,0,1,0,1.609-.225A1.15,1.15,0,0,0,2530.844,1048.96Z" transform="translate(-2443.38 -878.008)" fill="#555454"/>
      <path id="Caminho_892" data-name="Caminho 892" d="M2525.564,1044.978a1.152,1.152,0,1,0,1.613-.23,1.152,1.152,0,0,0-1.613.23Z" transform="translate(-2442.348 -877.335)" fill="#555454"/>
      <path id="Caminho_893" data-name="Caminho 893" d="M2520.272,1040.99a1.159,1.159,0,1,0,1.609-.225A1.159,1.159,0,0,0,2520.272,1040.99Z" transform="translate(-2441.313 -876.663)" fill="#555454"/>
      <rect id="Retângulo_47" data-name="Retângulo 47" width="13.002" height="24.95" rx="1.98" transform="matrix(0.602, -0.798, 0.798, 0.602, 60.296, 184.602)" fill="#bebebe"/>
      <path id="Caminho_894" data-name="Caminho 894" d="M2515.229,1075.083a1.609,1.609,0,0,0,2.229-.314l5.375-7.129.853.644a1.609,1.609,0,0,1,.314,2.237l-5.906,7.837a1.609,1.609,0,0,1-2.236.314l-17.379-13.107a1.609,1.609,0,0,1-.314-2.229l.539-.716Z" transform="translate(-2436.978 -880.044)" fill="#d6d6d6"/>
      <path id="Caminho_895" data-name="Caminho 895" d="M2521.022,1072.969a1.159,1.159,0,1,0,1.609-.225A1.159,1.159,0,0,0,2521.022,1072.969Z" transform="translate(-2441.459 -882.059)" fill="#555454"/>
      <path id="Caminho_896" data-name="Caminho 896" d="M2515.735,1068.988a1.15,1.15,0,1,0,1.611-.234,1.159,1.159,0,0,0-1.611.234Z" transform="translate(-2440.429 -881.386)" fill="#555454"/>
      <path id="Caminho_897" data-name="Caminho 897" d="M2510.453,1065.01a1.151,1.151,0,1,0,1.609-.225A1.151,1.151,0,0,0,2510.453,1065.01Z" transform="translate(-2439.395 -880.717)" fill="#555454"/>
      <path id="Caminho_898" data-name="Caminho 898" d="M2505.172,1061.019a1.159,1.159,0,1,0,1.609-.225,1.158,1.158,0,0,0-1.609.225Z" transform="translate(-2438.362 -880.042)" fill="#555454"/>
      <rect id="Retângulo_48" data-name="Retângulo 48" width="13.002" height="24.95" rx="1.98" transform="matrix(0.602, -0.798, 0.798, 0.602, 43.757, 207.322)" fill="#bebebe"/>
      <path id="Caminho_899" data-name="Caminho 899" d="M2494.681,1102.335a1.609,1.609,0,0,0,2.229-.314l5.375-7.121.853.644a1.609,1.609,0,0,1,.314,2.229l-5.906,7.836a1.609,1.609,0,0,1-2.236.314l-17.372-13.107a1.609,1.609,0,0,1-.313-2.229l.531-.708Z" transform="translate(-2432.964 -884.602)" fill="#d6d6d6"/>
      <path id="Caminho_900" data-name="Caminho 900" d="M2500.473,1100.228a1.143,1.143,0,1,0,.757-.448A1.151,1.151,0,0,0,2500.473,1100.228Z" transform="translate(-2437.445 -885.15)" fill="#555454"/>
      <path id="Caminho_901" data-name="Caminho 901" d="M2495.182,1096.24a1.159,1.159,0,1,0,1.609-.225,1.159,1.159,0,0,0-1.609.225Z" transform="translate(-2436.41 -885.987)" fill="#555454"/>
      <path id="Caminho_902" data-name="Caminho 902" d="M2489.942,1092.26a1.159,1.159,0,1,0,1.609-.225A1.159,1.159,0,0,0,2489.942,1092.26Z" transform="translate(-2435.386 -885.315)" fill="#555454"/>
      <path id="Caminho_903" data-name="Caminho 903" d="M2484.623,1088.28a1.151,1.151,0,1,0,1.609-.225A1.15,1.15,0,0,0,2484.623,1088.28Z" transform="translate(-2434.347 -884.644)" fill="#555454"/>
      <line id="Linha_63" data-name="Linha 63" x1="10.798" y1="8.134" transform="translate(165.693 49.568)" fill="#b6783c"/>
      <line id="Linha_64" data-name="Linha 64" x1="10.798" y1="8.142" transform="translate(160.777 56.364)" fill="#b6783c"/>
      <line id="Linha_65" data-name="Linha 65" x1="10.798" y1="8.134" transform="translate(155.861 63.169)" fill="#b6783c"/>
      <line id="Linha_66" data-name="Linha 66" x1="10.798" y1="8.142" transform="translate(150.937 69.965)" fill="#b6783c"/>
      <line id="Linha_67" data-name="Linha 67" x1="10.798" y1="8.142" transform="translate(146.021 76.77)" fill="#b6783c"/>
      <line id="Linha_68" data-name="Linha 68" x1="10.798" y1="8.142" transform="translate(141.105 83.567)" fill="#b6783c"/>
      <line id="Linha_69" data-name="Linha 69" x1="12.133" y1="9.156" transform="translate(135.385 89.751)" fill="#b6783c"/>
      <line id="Linha_70" data-name="Linha 70" x1="11.731" y1="8.85" transform="translate(130.332 96.445)" fill="#b6783c"/>
      <line id="Linha_71" data-name="Linha 71" x1="12.568" y1="9.478" transform="translate(125.279 103.151)" fill="#b6783c"/>
      <line id="Linha_72" data-name="Linha 72" x1="12.785" y1="9.639" transform="translate(120.226 109.851)" fill="#b6783c"/>
      <line id="Linha_73" data-name="Linha 73" x1="13.002" y1="9.808" transform="translate(115.173 116.552)" fill="#b6783c"/>
      <line id="Linha_74" data-name="Linha 74" x1="13.211" y1="9.961" transform="translate(110.121 123.252)" fill="#b6783c"/>
      <line id="Linha_75" data-name="Linha 75" x1="13.541" y1="10.21" transform="translate(105.068 129.955)" fill="#b6783c"/>
      <line id="Linha_76" data-name="Linha 76" x1="13.638" y1="10.283" transform="translate(100.023 136.663)" fill="#b6783c"/>
      <path id="Caminho_904" data-name="Caminho 904" d="M2437.952,1040.686c5-4.458,14.483-7.636,21.1-9.478.8-.225,1.609-.467,2.357-.716,8.126-2.711,13.2-8.046,10.459-17.934-1.77-14.82,13.139-22.359,13.219-22.4,2.928-1.513,6.79-.346,7.522,1.078l.3.571a1.956,1.956,0,0,0-2.076.282c-.064.056-14.128,10.628-12.351,25.449,2.752,9.929-2.325,15.223-10.459,17.934-.8.25-1.552.491-2.357.716-6.622,1.843-16.092,5.021-21.1,9.478-21.506,19.173-20.219,46.022-.9,63.071C2418.248,1092.38,2414.209,1061.846,2437.952,1040.686Z" transform="translate(-2422.193 -863.592)" fill="#b20f0c"/>
      <line id="Linha_77" data-name="Linha 77" x1="116.986" y2="163.5" transform="translate(60.751 49.889)" fill="none" stroke="#080600" stroke-linecap="round" stroke-miterlimit="10" stroke-width="1"/>
      <line id="Linha_78" data-name="Linha 78" x1="116.994" y2="155.156" transform="translate(58.82 52.517)" fill="none" stroke="#080600" stroke-linecap="round" stroke-miterlimit="10" stroke-width="1"/>
      <line id="Linha_79" data-name="Linha 79" x1="116.986" y2="155.156" transform="translate(56.897 50.946)" fill="none" stroke="#080600" stroke-linecap="round" stroke-miterlimit="10" stroke-width="1"/>
      <line id="Linha_80" data-name="Linha 80" x1="116.994" y2="155.156" transform="translate(54.966 49.367)" fill="none" stroke="#080600" stroke-linecap="round" stroke-miterlimit="10" stroke-width="1"/>
    </g>
  </g>
</svg>
